<?xml version="1.0" encoding="UTF-8"?>
<!DOCTYPE svg PUBLIC "-//W3C//DTD SVG 1.1//EN" "http://www.w3.org/Graphics/SVG/1.1/DTD/svg11.dtd">
<!-- Creator: CorelDRAW 2018 (64 Bit) -->
<svg xmlns="http://www.w3.org/2000/svg" xml:space="preserve" width="2cm" height="0.76632cm" version="1.1" style="shape-rendering:geometricPrecision; text-rendering:geometricPrecision; image-rendering:optimizeQuality; fill-rule:evenodd; clip-rule:evenodd"
viewBox="0 0 200 76.632"
 xmlns:xlink="http://www.w3.org/1999/xlink">
 <defs>
  <style type="text/css">
   <![CDATA[
    .fil1 {fill:#00A4E0}
    .fil2 {fill:#EF4123}
    .fil0 {fill:#FFCB05}
    .fil3 {fill:white}
   ]]>
  </style>
 </defs>
 <g id="Camada_x0020_1">
  <metadata id="CorelCorpID_0Corel-Layer"/>
  <path class="fil0" d="M31.175 16.925c2.253,-0.751 4.653,-1.152 7.146,-1.152 10.908,0 20.017,7.746 22.097,18.045l15.463 -3.152c-3.543,-17.495 -19.016,-30.666 -37.56,-30.666 -4.254,0 -8.327,0.691 -12.15,1.973l5.004 14.952z"/>
  <path class="fil1" d="M12.93 67.025l10.459 -11.82c-4.664,-4.133 -7.606,-10.168 -7.606,-16.893 0,-6.715 2.942,-12.75 7.606,-16.874l-10.459 -11.829c-7.926,7.026 -12.93,17.283 -12.93,28.703 0,11.43 5.004,21.687 12.93,28.713z"/>
  <path class="fil2" d="M60.418 42.836c-2.091,10.288 -11.189,18.024 -22.088,18.024 -2.502,0 -4.913,-0.401 -7.155,-1.162l-5.004 14.972c3.823,1.271 7.907,1.962 12.159,1.962 18.526,0 33.989,-13.151 37.551,-30.624l-15.463 -3.172z"/>
  <path class="fil3" d="M89.402 55.695c-0.511,-0.821 -1.191,-2.131 -1.611,-3.102 -2.453,-5.684 -2.563,-11.57 -0.501,-17.213 2.272,-6.196 6.616,-10.929 12.229,-13.351 7.056,-3.033 14.852,-2.442 21.618,1.571 4.293,2.462 7.336,6.264 9.648,11.65 0.29,0.69 0.55,1.421 0.81,2.051l-42.193 18.394zm14.09 -24.529c-5.013,2.151 -7.595,6.855 -7.055,12.359l21.218 -9.137c-3.654,-4.283 -8.397,-5.704 -14.163,-3.222l0 0zm16.804 19.876c-0.009,0 -0.009,0.01 -0.009,0.01l-0.442 -0.3c-1.269,2.051 -3.241,3.723 -5.734,4.804 -4.744,2.061 -9.137,1.53 -12.3,-1.241l-0.29 0.44c0,0 0,-0.011 -0.009,-0.011l-5.385 8.057c1.341,0.931 2.772,1.711 4.274,2.342 5.944,2.471 12.029,2.352 18.023,-0.25 4.335,-1.882 7.738,-4.744 10.058,-8.377l-8.186 -5.474zm26.041 -40.863l0 44.775 6.966 2.823 -3.953 9.228 -7.686 -3.203c-1.722,-0.75 -2.903,-1.892 -3.784,-3.183 -0.85,-1.311 -1.48,-3.122 -1.48,-5.544l0 -44.896 9.937 0zm18.034 33.376c0,-3.812 1.692,-7.235 4.354,-9.557l-7.146 -7.966c-4.844,4.283 -7.896,10.539 -7.896,17.504 -0.009,6.975 3.043,13.24 7.876,17.523l7.136 -7.966c-2.652,-2.332 -4.324,-5.734 -4.324,-9.538l0 0zm12.69 12.701c-1.401,0 -2.762,-0.24 -4.023,-0.661l-3.412 10.139c2.331,0.78 4.824,1.211 7.426,1.211 11.309,0.01 20.747,-8.018 22.937,-18.676l-10.487 -2.14c-1.191,5.794 -6.306,10.136 -12.441,10.127l0 0zm0.031 -36.088c-2.592,0 -5.085,0.42 -7.416,1.19l3.382 10.148c1.272,-0.42 2.623,-0.65 4.025,-0.65 6.143,0.009 11.267,4.372 12.428,10.178l10.489 -2.121c-2.151,-10.68 -11.59,-18.736 -22.908,-18.745l0 0z"/>
 </g>
</svg>
