<?xml version="1.0" encoding="UTF-8"?>
<!DOCTYPE svg PUBLIC "-//W3C//DTD SVG 1.1//EN" "http://www.w3.org/Graphics/SVG/1.1/DTD/svg11.dtd">
<!-- Creator: CorelDRAW 2018 (64 Bit) -->
<svg xmlns="http://www.w3.org/2000/svg" xml:space="preserve" width="3cm" height="0.52246cm" version="1.1" style="shape-rendering:geometricPrecision; text-rendering:geometricPrecision; image-rendering:optimizeQuality; fill-rule:evenodd; clip-rule:evenodd"
viewBox="0 0 299.846 52.219"
 xmlns:xlink="http://www.w3.org/1999/xlink">
 <defs>
  <style type="text/css">
   <![CDATA[
    .fil1 {fill:#F58220}
    .fil2 {fill:#0B1015;fill-rule:nonzero}
    .fil0 {fill:url(#id0)}
   ]]>
  </style>
  <linearGradient id="id0" gradientUnits="userSpaceOnUse" x1="143.775" y1="10.614" x2="176.907" y2="47.066">
   <stop offset="0" style="stop-opacity:1; stop-color:#F34F26"/>
   <stop offset="1" style="stop-opacity:1; stop-color:#F69E35"/>
  </linearGradient>
 </defs>
 <g id="Camada_x0020_1">
  <metadata id="CorelCorpID_0Corel-Layer"/>
  <path id="path-2" class="fil0" d="M158.497 0.189c-14.081,0 -25.504,11.46 -25.504,25.603 0,15.036 10.927,26.278 25.504,26.278 14.213,0 25.434,-11.389 25.434,-25.983 0,-14.506 -11.147,-25.898 -25.434,-25.898z"/>
  <path id="path-2_0" class="fil1" d="M158.497 0.189c-14.081,0 -25.504,11.46 -25.504,25.603 0,15.036 10.927,26.278 25.504,26.278 14.213,0 25.434,-11.389 25.434,-25.983 0,-14.506 -11.147,-25.898 -25.434,-25.898z"/>
  <path id="Shape" class="fil2" d="M13.71 1.122l-13.71 0 0 49.822 13.639 0c7.236,0 12.47,-1.786 17.06,-5.748 5.448,-4.708 8.679,-11.804 8.679,-19.138 0,-14.71 -10.548,-24.936 -25.668,-24.936zm10.904 37.42c-2.948,2.772 -6.744,3.969 -12.775,3.969l-2.506 0 0 -32.952 2.506 0c6.032,0 9.681,1.121 12.775,4.032 3.225,2.988 5.15,7.616 5.15,12.396 0,4.789 -1.925,9.579 -5.15,12.556zm19.069 12.403l9.318 0 0 -49.822 -9.318 0 0 49.822zm32.131 -30.71c-5.6,-2.162 -7.248,-3.588 -7.248,-6.268 0,-3.14 2.934,-5.529 6.956,-5.529 2.797,0 5.091,1.194 7.537,4.025l4.87 -6.638c-4.016,-3.669 -8.819,-5.534 -14.059,-5.534 -8.454,0 -14.911,6.129 -14.911,14.264 0,6.88 3.008,10.388 11.76,13.683 3.659,1.338 5.519,2.231 6.454,2.84 1.864,1.271 2.8,3.057 2.8,5.148 0,4.04 -3.085,7.023 -7.25,7.023 -4.447,0 -8.028,-2.313 -10.181,-6.646l-6.016 6.059c4.293,6.564 9.457,9.487 16.563,9.487 9.681,0 16.489,-6.733 16.489,-16.368 0,-7.92 -3.146,-11.508 -13.763,-15.547zm16.702 5.824c0,14.658 11.046,26.011 25.249,26.011 4.015,0 7.457,-0.827 11.692,-2.911l0 -11.436c-3.735,3.888 -7.033,5.453 -11.266,5.453 -9.391,0 -16.066,-7.099 -16.066,-17.189 0,-9.558 6.882,-17.105 15.64,-17.105 4.439,0 7.815,1.643 11.692,5.602l0 -11.435c-4.088,-2.16 -7.463,-3.049 -11.479,-3.049 -14.13,0 -25.462,11.582 -25.462,26.06zm112.519 8.531l-12.764 -33.467 -10.185 0 20.303 51.095 5.015 0 20.656 -51.095 -10.109 0 -12.916 33.467zm27.265 16.356l26.457 0 0 -8.434 -17.136 0 0 -13.458 16.482 0 0 -8.436 -16.482 0 0 -11.058 17.136 0 0 -8.437 -26.457 0 0 49.822zm63.38 -35.118c0,-9.334 -6.159,-14.704 -16.922,-14.704l-13.841 0 0 49.822 9.331 0 0 -20.024 1.221 0 12.901 20.024 11.474 0 -15.069 -20.987c7.038,-1.498 10.904,-6.506 10.904,-14.131zm-18.717 8.228l-2.715 0 0 -15.098 2.864 0c5.821,0 8.975,2.548 8.975,7.397 0,5.001 -3.154,7.701 -9.124,7.701z"/>
 </g>
</svg>
