<?xml version="1.0" encoding="UTF-8"?>
<!DOCTYPE svg PUBLIC "-//W3C//DTD SVG 1.1//EN" "http://www.w3.org/Graphics/SVG/1.1/DTD/svg11.dtd">
<!-- Creator: CorelDRAW 2018 (64 Bit) -->
<svg xmlns="http://www.w3.org/2000/svg" xml:space="preserve" width="3.5cm" height="0.90698cm" version="1.1" style="shape-rendering:geometricPrecision; text-rendering:geometricPrecision; image-rendering:optimizeQuality; fill-rule:evenodd; clip-rule:evenodd"
viewBox="0 0 3500 906.98"
 xmlns:xlink="http://www.w3.org/1999/xlink">
 <defs>
  <style type="text/css">
   <![CDATA[
    .fil0 {fill:#0079BE}
    .fil2 {fill:#211E1F}
    .fil1 {fill:white}
   ]]>
  </style>
 </defs>
 <g id="Camada_x0020_1">
  <metadata id="CorelCorpID_0Corel-Layer"/>
  <g id="_23Layer_x0020_1">
   <path class="fil0" d="M670.65 906.96c247.87,1.19 474.13,-202.14 474.13,-449.53 0,-270.53 -226.26,-457.52 -474.13,-457.41l-213.32 0c-250.87,-0.11 -457.33,186.94 -457.33,457.41 0,247.44 206.46,450.72 457.33,449.53l213.32 0z"/>
   <path class="fil1" d="M458.32 37.48c-229.21,0.09 -414.96,185.88 -415.01,415.2 0.05,229.28 185.8,415.07 415.01,415.14 229.29,-0.07 415.07,-185.86 415.09,-415.14 -0.02,-229.32 -185.8,-415.11 -415.09,-415.2zm-263.06 415.2l0 0c0.21,-112.05 70.2,-207.6 168.88,-245.58l0 491.1c-98.68,-37.94 -168.67,-133.44 -168.88,-245.52zm357.21 245.62l0 0 0 -491.22c98.72,37.87 168.83,133.5 169,245.6 -0.17,112.15 -70.28,207.68 -169,245.62z"/>
   <path class="fil2" d="M1290.15 195.13c0,-42.89 -22.38,-40.08 -43.82,-40.55l0 -12.39c18.59,0.91 37.64,0.91 56.26,0.91 20.04,0 47.22,-0.91 82.53,-0.91 123.48,0 190.72,82.5 190.72,166.96 0,47.23 -27.63,165.99 -196.46,165.99 -24.3,0 -46.76,-0.95 -69.16,-0.95 -21.45,0 -42.45,0.48 -63.89,0.95l0 -12.39c28.6,-2.87 42.44,-3.83 43.82,-36.28l0 -231.34 0 0zm46.74 223.73l0 0c0,36.73 26.25,41.02 49.62,41.02 103.04,0 136.86,-77.76 136.86,-148.84 0,-89.17 -57.24,-153.55 -149.25,-153.55 -19.59,0 -28.58,1.4 -37.23,1.9l0 259.47 0 0z"/>
   <path class="fil2" d="M1592.59 462.77l9.03 0c13.33,0 22.89,0 22.89,-15.79l0 -129.24c0,-20.97 -7.14,-23.89 -24.8,-33.38l0 -7.64c22.4,-6.72 49.14,-15.72 51.01,-17.17 3.38,-1.91 6.21,-2.4 8.61,-2.4 2.36,0 3.34,2.87 3.34,6.7l0 183.13c0,15.79 10.5,15.79 23.86,15.79l8.08 0 0 12.39c-16.22,0 -32.93,-0.95 -50.05,-0.95 -17.17,0 -34.35,0.46 -51.97,0.95l0 -12.39 0 0zm51.01 -279.07l0 0c-12.41,0 -23.36,-11.44 -23.36,-23.83 0,-11.96 11.44,-22.95 23.36,-22.95 12.35,0 23.38,10.07 23.38,22.95 0,12.88 -10.54,23.83 -23.38,23.83z"/>
   <path class="fil2" d="M1739.92 320.57c0,-17.64 -5.27,-22.38 -27.63,-31.44l0 -9.05c20.49,-6.69 40.02,-12.9 62.93,-22.93 1.42,0 2.82,0.96 2.82,4.76l0 31.03c27.23,-19.55 50.61,-35.79 82.6,-35.79 40.47,0 54.79,29.58 54.79,66.77l0 123.06c0,15.79 10.48,15.79 23.85,15.79l8.59 0 0 12.39c-16.74,0 -33.42,-0.95 -50.55,-0.95 -17.19,0 -34.37,0.46 -51.52,0.95l0 -12.39 8.57 0c13.39,0 22.87,0 22.87,-15.79l0 -123.5c0,-27.23 -16.6,-40.57 -43.83,-40.57 -15.25,0 -39.57,12.41 -55.37,22.91l0 141.16c0,15.77 10.53,15.77 23.92,15.77l8.56 0 0 12.41c-16.68,0 -33.41,-0.97 -50.56,-0.97 -17.15,0 -34.36,0.48 -51.51,0.97l0 -12.41 8.6 0c13.35,0 22.87,0 22.87,-15.77l0 -126.41 0 0z"/>
   <path class="fil2" d="M1984.13 343.5c-0.99,4.3 -0.99,11.44 0,27.69 2.8,45.29 31.98,82.48 70.07,82.48 26.25,0 46.8,-14.3 64.42,-31.94l6.67 6.7c-21.96,29.07 -49.14,53.87 -88.22,53.87 -75.84,0 -91.1,-73.47 -91.1,-103.97 0,-93.51 62.94,-121.2 96.3,-121.2 38.66,0 80.17,24.33 80.62,74.89 0,2.9 0,5.72 -0.45,8.63l-4.33 2.85 -133.98 0 0 0zm84.44 -15.28l0 0c11.88,0 13.3,-6.21 13.3,-11.9 0,-24.34 -14.79,-43.91 -41.51,-43.91 -29.05,0 -49.09,21.44 -54.81,55.81l83.02 0 0 0z"/>
   <path class="fil2" d="M2133.86 462.77l12.9 0c13.3,0 22.84,0 22.84,-15.79l0 -134.02c0,-14.77 -17.61,-17.66 -24.8,-21.47l0 -7.13c34.83,-14.8 53.92,-27.23 58.26,-27.23 2.82,0 4.23,1.46 4.23,6.23l0 42.93 1 0c11.9,-18.6 31.96,-49.16 61.02,-49.16 11.94,0 27.18,8.11 27.18,25.29 0,12.88 -9.03,24.36 -22.38,24.36 -14.86,0 -14.86,-11.48 -31.52,-11.48 -8.12,0 -34.81,10.99 -34.81,39.62l0 112.06c0,15.77 9.52,15.77 22.89,15.77l26.69 0 0 12.41c-26.23,-0.49 -46.18,-0.95 -66.74,-0.95 -19.53,0 -39.59,0.46 -56.76,0.95l0 -12.39 0 0z"/>
   <path class="fil2" d="M2317.49 408.83c6.21,31.48 25.27,58.21 60.1,58.21 28.07,0 38.58,-17.17 38.58,-33.87 0,-56.28 -103.95,-38.17 -103.95,-114.96 0,-26.72 21.49,-61.08 73.94,-61.08 15.24,0 35.74,4.33 54.32,13.88l3.38 48.62 -10.99 0c-4.76,-30.01 -21.44,-47.2 -51.99,-47.2 -19.08,0 -37.17,10.97 -37.17,31.47 0,55.86 110.63,38.64 110.63,113.5 0,31.49 -25.29,64.9 -82.04,64.9 -19.07,0 -41.49,-6.67 -58.17,-16.19l-5.25 -54.87 8.61 -2.41 0 0z"/>
   <path class="fil2" d="M2884.98 228.52l-11.9 0c-9.06,-55.77 -48.67,-78.21 -102.06,-78.21 -54.88,0 -134.52,36.7 -134.52,151.17 0,96.43 68.72,165.56 142.13,165.56 47.2,0 86.35,-32.43 95.89,-82.52l10.93 2.84 -10.93 69.63c-20.04,12.44 -73.92,25.31 -105.44,25.31 -111.56,0 -182.12,-72.04 -182.12,-179.37 0,-97.77 87.25,-167.91 180.72,-167.91 38.62,0 75.81,12.44 112.54,25.32l4.76 68.18 0 0z"/>
   <path class="fil2" d="M2902.18 462.77l9.03 0c13.37,0 22.95,0 22.95,-15.79l0 -265.66c0,-31.01 -7.16,-31.97 -25.31,-37.2l0 -7.63c19.08,-6.2 39.11,-14.79 49.12,-20.53 5.2,-2.86 9.07,-5.27 10.47,-5.27 2.9,0 3.87,2.89 3.87,6.72l0 329.57c0,15.79 10.46,15.79 23.83,15.79l8.05 0 0 12.39c-16.13,0 -32.85,-0.95 -50.03,-0.95 -17.15,0 -34.32,0.46 -51.99,0.95l0 -12.39 0.01 0z"/>
   <path class="fil2" d="M3208.38 448.89c0,8.61 5.23,9.08 13.32,9.08 5.74,0 12.88,-0.47 19.09,-0.47l0 10.04c-20.53,1.89 -59.62,11.92 -68.7,14.76l-2.38 -1.44 0 -38.61c-28.58,23.37 -50.56,40.05 -84.44,40.05 -25.74,0 -52.45,-16.68 -52.45,-56.72l0 -122.16c0,-12.39 -1.89,-24.32 -28.56,-26.7l0 -9.07c17.19,-0.47 55.27,-3.32 61.48,-3.32 5.3,0 5.3,3.32 5.3,13.82l0 123.03c0,14.33 0,55.36 41.46,55.36 16.2,0 37.66,-12.41 57.66,-29.06l0 -128.38c0,-9.5 -22.87,-14.74 -39.99,-19.51l0 -8.6c42.86,-2.87 69.62,-6.66 74.34,-6.66 3.87,0 3.87,3.32 3.87,8.59l0 175.97 0 0z"/>
   <path class="fil2" d="M3303.28 291.51c19.06,-16.23 44.8,-34.36 71.05,-34.36 55.34,0 88.69,48.22 88.69,100.17 0,62.48 -45.76,124.98 -113.99,124.98 -35.28,0 -53.87,-11.47 -66.29,-16.68l-14.28 10.94 -9.99 -5.22c4.23,-28.14 6.66,-55.83 6.66,-84.89l0 -205.13c0,-31.01 -7.19,-31.97 -25.3,-37.2l0 -7.63c19.13,-6.2 39.09,-14.79 49.12,-20.53 5.27,-2.86 9.05,-5.27 10.54,-5.27 2.83,0 3.79,2.89 3.79,6.72l0 174.08 0 0 0 0.02zm0 129.71l0 0c0,18.15 17.15,48.7 49.11,48.7 51.03,0 72.48,-50.12 72.48,-92.59 0,-51.49 -39.06,-94.42 -76.28,-94.42 -17.69,0 -32.44,11.47 -45.31,22.46l0 115.85 0 0z"/>
   <path class="fil2" d="M1245.79 752.49l3.64 0c9.33,0 19.18,-1.26 19.18,-14.79l0 -135.96c0,-13.55 -9.85,-14.81 -19.18,-14.81l-3.64 0 0 -7.8c10.11,0 25.69,1.03 38.45,1.03 12.95,0 28.5,-1.03 40.7,-1.03l0 7.8 -3.66 0c-9.29,0 -19.18,1.28 -19.18,14.81l0 135.96c0,13.53 9.89,14.79 19.18,14.79l3.66 0 0 7.82c-12.46,0 -28.05,-1.03 -40.98,-1.03 -12.73,0 -28.06,1.03 -38.17,1.03l0 -7.82 0 0z"/>
   <path class="fil2" d="M1324.94 761.41c-12.53,0 -28.09,-1.05 -41,-1.05 -12.69,0 -27.95,1.05 -38.15,1.05l-1.12 0 0 -1.12 0 -7.79 0 -1.13 1.12 0 3.64 0c9.4,-0.21 17.97,-0.98 18.06,-13.67l0 -135.96c-0.09,-12.69 -8.65,-13.55 -18.06,-13.72l-4.76 0 0 -1.09 0 -8.96 1.12 0c10.2,0 25.76,1.03 38.43,1.03 12.93,0 28.45,-1.03 40.72,-1.03l1.16 0 0 1.19 0 8.86 -1.16 0 -3.62 0c-9.42,0.19 -18.04,1.03 -18.1,13.72l0 135.96c0.06,12.69 8.68,13.46 18.1,13.67l4.78 0 0 1.13 0 8.91 -1.16 0 0 0zm-1.1 -2.22l0 0 0 -5.55 -2.52 0c-9.28,0 -20.3,-1.59 -20.35,-15.94l0 -135.96c0.05,-14.35 11.07,-15.96 20.35,-15.96l2.52 0 0 -5.52c-11.99,0 -27.02,1.02 -39.62,1.02 -12.32,0 -27.23,-0.95 -37.28,-1.02l0 5.52 2.49 0c9.24,0 20.32,1.61 20.32,15.96l0 135.96c0,14.35 -11.08,15.94 -20.32,15.94l-2.49 0 0 5.55c10.05,-0.11 24.71,-1.05 37,-1.05 12.63,0 27.65,0.98 39.9,1.05l0 0z"/>
   <path class="fil2" d="M1503.21 709.14l0.53 -0.49 0 -97.32c0,-21.32 -14.81,-24.42 -22.58,-24.42l-5.72 0.02 0 -7.8c12.22,0 24.15,1.03 36.33,1.03 10.62,0 21.32,-1.03 31.94,-1.03l0 7.8 -3.89 0c-10.92,0 -23.11,2.07 -23.11,32.94l0 118.13c0,9.06 0.26,18.13 1.54,26.18l-9.89 0 -133.6 -148.99 0 106.95c0,22.58 4.36,30.35 24.38,30.35l4.39 0 0 7.82c-11.14,0 -22.27,-1.03 -33.46,-1.03 -11.63,0 -23.59,1.03 -35.28,1.03l0 -7.82 3.63 0c17.92,0 23.34,-12.18 23.34,-32.92l0 -109.33c0,-14.52 -11.97,-23.31 -23.59,-23.31l-3.38 0 0 -7.8c9.86,0 19.97,1.03 29.82,1.03 7.79,0 15.33,-1.03 23.1,-1.03l115.5 130.01 0 0z"/>
   <path class="fil2" d="M1518.25 765.31l-10.71 -0.4 -131.69 -146.78 0 104.01c0.3,22.56 3.74,28.98 23.27,29.23l5.57 0 0 1.12 0 8.92 -1.16 0c-11.21,0 -22.4,-1.05 -33.46,-1.05 -11.63,0 -23.53,1.05 -35.31,1.05l-1.14 0 0 -1.12 0 -8.92 1.14 0 3.66 0c17.15,-0.09 22.05,-11.12 22.24,-31.8l0 -109.31c-0.04,-13.81 -11.38,-22.21 -22.49,-22.24l-4.55 0 0 -1.14 0 -8.86 1.14 0c9.92,0 20.09,0.98 29.82,0.98 7.72,0 15.24,-0.98 23.99,-0.61l114.05 128.4 0 -95.45c-0.14,-20.65 -13.91,-23.13 -21.47,-23.32l-6.88 0 0 -1.14 0 -8.86 1.15 0c12.25,0 24.21,0.98 36.33,0.98 10.57,0 21.2,-0.98 31.92,-0.98l1.14 0 0 1.11 0 8.89 -1.14 0 -3.86 0c-10.71,0.31 -21.7,1.24 -22,31.85l0 118.11c0,9.06 0.26,18.13 1.52,26l0.26 1.33 -1.34 0 0 0zm-9.87 -2.29l0 0 8.59 0c-1.17,-7.79 -1.37,-16.43 -1.37,-25.04l0 -118.11c0,-31.15 13.04,-34.09 24.22,-34.09l2.73 0 0 -5.52c-10.22,0.07 -20.47,1.02 -30.78,1.02 -11.88,0 -23.43,-0.95 -35.19,-1.02l-0.02 5.52 4.59 0c7.98,0 23.73,3.55 23.73,25.56l-0.37 98.08 -0.53 0.54 -0.87 0.81 -115.4 -130.51c-7.7,0 -15.22,1.02 -23.13,1.02 -9.52,0 -19.25,-0.95 -28.67,-1.02l-0.05 5.52 2.31 0c12.18,0 24.69,9.29 24.69,24.48l0 109.31c0,20.74 -5.77,34.02 -24.44,34.09l-2.51 -0.07 0 5.6c11.26,-0.11 22.81,-1.05 34.16,-1.05 10.84,0 21.62,0.94 32.34,1.05l0 -5.53 -3.27 0c-20.44,-0.07 -25.5,-8.96 -25.53,-31.52l0 -109.87 134.77 150.75 0 0zm-5.17 -53.9l0 0 0.83 -0.75 -0.83 0.75zm-0.59 -0.49l0 0 0 -0.09 -0.21 -0.19 0.21 0.28z"/>
   <path class="fil2" d="M1582.56 592.09c-19.5,0 -20.23,4.68 -24.12,23.61l-7.78 0c1.01,-7.26 2.31,-14.51 3.09,-22.07 1.05,-7.26 1.56,-14.5 1.56,-22.03l6.25 0c2.08,7.81 8.56,7.53 15.59,7.53l133.88 0c7.01,0 13.49,-0.25 14.03,-8.05l6.18 1.03c-1,7.02 -2.05,14.02 -2.84,21.03 -0.47,7 -0.47,14.02 -0.47,21l-7.8 2.91c-0.55,-9.59 -1.84,-24.96 -19.2,-24.96l-42.56 0 0 138.1c0,20 9.08,22.3 21.51,22.3l4.93 0 0 7.82c-10.11,0 -28.3,-1.03 -42.28,-1.03 -15.56,0 -33.76,1.03 -43.89,1.03l0 -7.82 4.95 0c14.3,0 21.55,-1.28 21.55,-21.77l0 -138.63 -42.58 0 0 0z"/>
   <path class="fil2" d="M1684.86 761.41c-10.22,0 -28.38,-1.05 -42.33,-1.05 -15.54,0 -33.7,1.05 -43.89,1.05l-1.08 0 0 -1.1 0 -8.94 1.08 0 4.95 0c14.3,-0.35 20.06,-0.53 20.39,-20.65l0 -137.51 -41.42 0 0 -1.12 0 -1.15 43.68 0 0 139.78c0,20.82 -8.4,22.92 -22.65,22.94l-3.81 0 0 5.48c10.24,-0.06 27.68,-1 42.75,-1 13.55,0 30.89,0.94 41.14,1l0 -5.48 -3.79 0c-12.55,-0.02 -22.65,-3.08 -22.65,-23.47l0 -139.25 43.7 0c17.41,0.07 19.69,14.87 20.26,24.5l5.6 -2.07c0,-6.77 0.04,-13.54 0.49,-20.38 0.77,-6.67 1.72,-13.3 2.7,-19.92l-3.97 -0.66c-1.19,7.56 -8.49,7.92 -15.02,7.85l-133.84 0 -1.35 0c-6.09,0 -12.77,-0.28 -15.1,-7.54l-4.27 0c-0.03,7.19 -0.54,14.16 -1.54,21.05 -0.75,7.14 -1.94,13.99 -2.9,20.85l5.56 0c3.41,-18.08 5.64,-23.96 25.01,-23.68l0 1.15 0 1.12c-19.18,0.35 -18.8,3.59 -23.01,22.77l-0.21 0.89 -0.9 0 -9.08 0 0.14 -1.34c1.05,-7.28 2.36,-14.51 3.13,-22.07 1.09,-7.21 1.58,-14.4 1.58,-21.86l0 -1.12 1.1 0 7.12 0 0.2 0.81c1.76,6.54 6.58,6.58 13.17,6.68l1.35 0 133.84 0c7.23,-0.1 12.48,-0.21 12.93,-7l0.11 -1.22 1.17 0.26 7.33 1.15 -0.17 1.14c-1.03,6.93 -2.07,13.95 -2.82,20.91 -0.52,6.92 -0.52,13.93 -0.52,20.93l0 0.83 -0.72 0.28 -9.21 3.34 -0.07 -1.51c-0.68,-9.76 -1.69,-23.87 -18.09,-23.87l-41.42 0 0 136.96c0.22,19.59 7.99,20.93 20.37,21.2l6.07 0 0 1.1 0 8.92 -1.09 0.02 0 0z"/>
   <path class="fil2" d="M1739.55 752.49l3.64 0c9.33,0 19.2,-1.26 19.2,-14.79l0 -135.96c0,-13.55 -9.87,-14.81 -19.2,-14.81l-3.64 0 0 -7.8c15.79,0 42.83,1.03 64.58,1.03 21.84,0 48.79,-1.03 66.41,-1.03 -0.42,11.14 -0.19,28.31 0.58,39.7l-7.82 2.09c-1.25,-16.86 -4.36,-30.35 -31.63,-30.35l-36.03 0 0 67.97 30.84 0c15.57,0 18.97,-8.8 20.49,-22.85l7.79 0c-0.51,10.17 -0.79,20.28 -0.79,30.4 0,9.88 0.28,19.72 0.79,29.59l-7.79 1.54c-1.52,-15.56 -2.31,-25.67 -20.23,-25.67l-31.1 -0.02 0 60.45c0,16.9 14.98,16.9 31.62,16.9 31.14,0 44.87,-2.1 52.66,-31.66l7.28 1.79c-3.41,13.79 -6.49,27.51 -8.8,41.3 -16.63,0 -46.48,-1.03 -69.81,-1.03 -23.4,0 -54.25,1.03 -69.04,1.03l0 -7.82 0 0z"/>
   <path class="fil2" d="M1878.36 761.41c-16.66,0 -46.49,-1.07 -69.79,-1.07 -23.38,0 -54.21,1.07 -69.04,1.07l-1.08 0 0 -1.1 0 -7.82 0 -1.12 1.08 0 3.64 0c9.42,-0.14 17.94,-0.98 18.08,-13.67l0 -135.96c-0.14,-12.67 -8.66,-13.51 -18.08,-13.72l-4.72 0 0 -1.09 0 -8.91 1.08 0c15.84,0 42.85,0.98 64.6,0.98 21.82,0 48.74,-0.98 66.41,-0.98l1.17 0 -0.05 1.14c-0.17,3.9 -0.24,8.52 -0.24,13.41 0,8.97 0.24,18.79 0.77,26.19l0.03 0.93 -0.87 0.27 -9.12 2.36 -0.05 -1.33c-1.53,-16.84 -3.78,-29.05 -30.51,-29.32l-34.96 0 -0.04 65.7 29.81 0c14.94,-0.14 17.62,-7.79 19.39,-21.77l0.08 -1.01 1 0 8.94 0 -0.01 1.15c-0.49,10.12 -0.83,20.23 -0.83,30.35 0,9.81 0.34,19.67 0.83,29.54l0.01 0.92 -0.92 0.21 -9.02 1.81 -0.08 -1.23c-1.79,-15.84 -1.93,-24.5 -19.17,-24.71l-29.99 -0.02 0 59.37c0.03,15.76 13.63,15.68 30.54,15.76 31.23,-0.17 43.76,-1.68 51.59,-30.83l0.26 -1.05 1.1 0.19 8.31 2.15 -0.26 1.07c-3.34,13.76 -6.46,27.48 -8.78,41.21l-0.21 0.93 -0.9 0 0 0zm-0.94 -2.27l0 0c2.26,-13.09 5.21,-26.22 8.4,-39.29l-5.13 -1.3c-7.77,29.05 -22.82,31.64 -53.44,31.45 -16.35,0 -32.71,0 -32.78,-18.02l0 -61.57 32.23 0c18.13,-0.21 19.99,10.74 21.27,25.51l5.61 -1.17c-0.5,-9.55 -0.75,-19.14 -0.75,-28.66 0,-9.79 0.25,-19.5 0.75,-29.26l-5.61 0c-1.44,13.51 -5.67,23.01 -21.49,22.83l-32.01 0 0 -70.26 37.2 0c27.01,-0.18 31.49,13.75 32.62,30.08l5.6 -1.52c-0.43,-7.32 -0.75,-16.71 -0.75,-25.39 0,-4.45 0.11,-8.63 0.25,-12.31 -17.63,0.07 -43.91,1.02 -65.26,1.02 -21.33,0 -47.58,-0.95 -63.48,-1.02l0 5.52 2.52 0c9.26,0 20.31,1.61 20.34,15.96l0 135.96c-0.03,14.31 -11.08,15.89 -20.34,15.98l-2.52 0 0 5.46c15.14,-0.02 45.12,-0.98 67.92,-0.98 22.89,0 52.12,0.96 68.85,0.98l0 0z"/>
   <path class="fil2" d="M1922.22 606.62c0,-18.92 -10.36,-19.71 -18.45,-19.71l-4.67 0.02 0 -7.82c8.31,0 24.4,1.05 40.23,1.05 15.56,0 28.04,-1.05 41.76,-1.05 32.69,0 61.77,8.84 61.77,45.73 0,23.31 -15.55,37.59 -36.05,45.67l44.35 66.4c7.28,10.97 12.44,14.05 25.18,15.56l0 7.84c-8.57,0 -16.89,-1.03 -25.43,-1.03 -8.05,0 -16.38,1.03 -24.39,1.03 -19.97,-26.22 -37.14,-54.25 -53.99,-84.13l-17.08 0 0 55.57c0,20 9.31,20.74 21.23,20.74l4.69 0 0 7.82c-14.84,0 -29.82,-1.03 -44.63,-1.03 -12.47,0 -24.67,1.03 -37.64,1.03l0 -7.82 4.67 0c9.65,0 18.45,-4.36 18.45,-13.99l0 -131.88 0 0zm33.23 60.22l0 0 12.67 0c25.97,0 39.94,-9.85 39.94,-40.5 0,-23.06 -14.77,-37.87 -37.89,-37.87 -7.79,0 -11.1,0.81 -14.72,1.05l0 77.32 0 0z"/>
   <path class="fil2" d="M2076.34 761.41c-8.7,0 -16.96,-1.05 -25.48,-1.05 -7.93,0 -16.2,1.05 -25.25,0.61 -19.9,-26.11 -36.96,-53.98 -53.73,-83.63l-15.33 0 0 54.37c0.27,19.53 8.11,19.38 20.11,19.66l5.81 0 0 1.12 0 8.92 -1.14 0c-14.84,0 -29.89,-1.05 -44.62,-1.05 -12.41,0 -24.57,1.05 -37.61,1.05l-1.14 0 0 -1.12 0 -8.92 1.14 0 4.67 0c9.35,-0.06 17.24,-4.12 17.28,-12.87l0 -131.86c-0.2,-18.43 -9.23,-18.33 -17.28,-18.59l-5.81 0 0 -1.12 0 -8.94 1.14 0c8.42,0 24.43,1.01 40.23,1.01 15.49,0 27.97,-1.01 41.78,-1.01 32.7,0.07 62.82,9.1 62.91,46.78 0,23.45 -15.49,38.08 -35.53,46.25l43.61 65.28c7.25,10.76 11.76,13.46 24.4,15.07l0.96 0.14 0 0.98 0 8.92 -1.12 0 0 0zm-120.92 -86.35l0 0 17.74 0 0.3 0.58c16.92,29.82 33.97,57.82 53.08,83.55 7.91,0 16.24,-1.07 24.32,-1.07 8.3,0 16.28,0.91 24.36,1.03l0 -5.68c-12.18,-1.51 -17.88,-5.15 -24.97,-15.93l-45.15 -67.57 1.28 -0.52c20.3,-7.98 35.33,-21.86 35.35,-44.68 -0.02,-36.02 -27.99,-44.37 -60.62,-44.51 -13.69,0 -26.15,1.04 -41.78,1.04 -15.24,0 -30.64,-0.97 -39.13,-1.04l0 5.52 3.57 0c8.05,0.01 19.53,1.34 19.53,20.86l0 131.86c0,10.42 -9.76,15.16 -19.53,15.18l-3.57 0 0 5.47c12.5,-0.03 24.31,-1.03 36.51,-1.03 14.51,0 29.14,1 43.5,1.03l0 -5.47 -3.55 0c-11.83,-0.02 -22.38,-1.49 -22.38,-21.97l0 -56.65 1.14 0 0 0zm0 -7.12l0 0 -1.14 0 0 -79.47 1 -0.09c3.53,-0.28 7.05,-1.01 14.89,-1.01 23.64,0 39.01,15.36 39.04,39.03 -0.07,30.99 -14.93,41.52 -41.09,41.54l-12.7 0 0 0zm12.7 -2.24l0 0c25.69,-0.21 38.62,-9.13 38.89,-39.29 -0.14,-22.68 -14.23,-36.75 -36.84,-36.84 -7.02,0 -10.31,0.65 -13.62,0.93l0 75.2 11.57 0 0 0z"/>
   <path class="fil2" d="M2252.53 709.14l0.47 -0.49 0 -97.32c0,-21.32 -14.78,-24.42 -22.55,-24.42l-5.69 0.02 0 -7.8c12.18,0 24.1,1.03 36.31,1.03 10.66,0 21.26,-1.03 31.97,-1.03l0 7.8 -3.92 0c-10.9,0 -23.1,2.07 -23.1,32.94l0 118.13c0,9.06 0.27,18.13 1.54,26.18l-9.85 0 -133.63 -148.99 0 106.95c0,22.58 4.41,30.35 24.38,30.35l4.41 0 0 7.82c-11.13,0 -22.31,-1.03 -33.44,-1.03 -11.73,0 -23.65,1.03 -35.32,1.03l0 -7.82 3.61 0c17.92,0 23.38,-12.18 23.38,-32.92l0 -109.33c0,-14.52 -11.94,-23.31 -23.59,-23.31l-3.4 0 0 -7.8c9.84,0 20,1.03 29.84,1.03 7.73,0 15.29,-1.03 23.08,-1.03l115.5 130.01 0 0z"/>
   <path class="fil2" d="M2267.56 765.3l-10.69 -0.37 -131.7 -146.8 0 103.99c0.31,22.58 3.72,28.98 23.31,29.25l5.49 0 0 1.12 0 8.92 -1.14 0c-11.23,0 -22.34,-1.07 -33.47,-1.07 -11.59,0 -23.58,1.07 -35.25,1.07l-1.17 0 0 -1.1 0 -8.94 1.17 0 3.61 0c17.11,-0.07 22.03,-11.12 22.19,-31.87l0 -109.26c-0.02,-13.82 -11.33,-22.21 -22.42,-22.22l-4.55 0 0 -1.09 0 -8.94 1.17 0c9.89,0 20.04,1.01 29.84,1.01 7.63,0 15.15,-1.01 23.85,-0.66l114.08 128.45 0 -95.48c-0.08,-20.63 -13.89,-23.19 -21.43,-23.29l-6.86 0 0 -1.09 0 -8.94 1.13 0c12.27,0 24.22,1.01 36.35,1.01 10.59,0 21.21,-1.01 31.9,-1.01l1.14 0 0 1.15 0 8.88 -1.14 0 -3.85 0c-10.71,0.29 -21.73,1.24 -22.01,31.85l0 118.11c0,9.06 0.24,18.06 1.56,26.06l0.14 1.26 -1.25 0 0 0zm-9.85 -2.28l0 0 8.52 0c-1.13,-7.79 -1.38,-16.43 -1.38,-25.04l0 -118.11c0.02,-31.15 13.16,-34.02 24.27,-34.11l2.72 0 0 -5.5c-10.19,0.07 -20.46,1.02 -30.77,1.02 -11.92,0 -23.48,-0.95 -35.23,-1.02l0 5.5 4.61 0c7.98,0.09 23.71,3.57 23.71,25.55l-0.35 98.11 -0.51 0.54 -0.79 0.82 -115.5 -130.52c-7.7,0 -15.22,1.02 -23.06,1.02 -9.61,0 -19.32,-0.95 -28.75,-1.02l0 5.5 2.29 0c12.18,0.09 24.69,9.27 24.69,24.48l0 109.26c0,20.82 -5.86,34.09 -24.46,34.16l-2.52 -0.02 0 5.5c11.2,-0.06 22.76,-1 34.16,-1 10.9,0 21.66,0.94 32.39,1l0 -5.48 -3.27 0c-20.44,-0.02 -25.55,-8.96 -25.59,-31.54l0 -109.81 134.82 150.71 0 0zm-5.2 -53.9l0 0 0.81 -0.73 -0.81 0.73zm-0.64 -0.47l0 0 0 -0.11 -0.2 -0.19 0.2 0.3z"/>
   <path class="fil2" d="M2334.76 723.19c-2.62,8.79 -5.75,15.59 -5.75,20.21 0,7.83 10.92,9.09 19.46,9.09l2.88 0 0 7.82c-10.39,-0.56 -21,-1.03 -31.44,-1.03 -9.35,0 -18.64,0.47 -27.99,1.03l0 -7.82 1.56 0c10.12,0 18.71,-5.97 22.54,-16.89l41.56 -119.09c3.35,-9.61 8.07,-22.6 9.63,-32.22 8.26,-2.82 18.67,-8 23.57,-11.13 0.81,-0.26 1.26,-0.54 2.08,-0.54 0.77,0 1.26,0 1.84,0.8 0.77,2.05 1.52,4.41 2.35,6.48l47.74 135.77c3.11,9.06 6.19,18.65 9.55,26.46 3.13,7.28 8.61,10.36 17.19,10.36l1.52 0 0 7.82c-11.67,-0.56 -23.36,-1.03 -35.79,-1.03 -12.72,0 -25.72,0.47 -38.95,1.03l0 -7.82 2.88 0c5.94,0 16.09,-1.02 16.09,-7.51 0,-3.38 -2.35,-10.38 -5.24,-18.71l-10.09 -30.1 -58.91 0 -8.28 27.02 0 0zm37.87 -115l0 0 -0.52 0 -24.13 73.45 48.49 0 -23.84 -73.45z"/>
   <path class="fil2" d="M2472.98 761.41c-11.67,-0.52 -23.35,-1.07 -35.72,-1.07 -12.72,0 -25.64,0.55 -38.92,1.07l-1.17 0.07 0 -1.17 0 -8.98 1.14 0 2.85 0c6.02,0 14.94,-1.36 14.94,-6.35 0.07,-2.96 -2.27,-10.08 -5.12,-18.34l-9.89 -29.35 -57.24 0 -8.05 26.22c-2.65,8.85 -5.74,15.71 -5.73,19.93 0.09,6.35 9.79,7.89 18.38,7.89l4.01 0 0 1.17 0 8.98 -1.18 -0.07c-10.37,-0.52 -20.98,-1.07 -31.32,-1.07 -9.31,0 -18.66,0.55 -27.97,1.07l-1.2 0.07 0 -1.17 0 -8.98 1.13 0 1.54 0c9.66,-0.03 17.73,-5.53 21.48,-16.08l41.54 -119.11c3.41,-9.64 8.09,-22.58 10.34,-32.92 8.12,-2.75 18.55,-7.98 23.56,-11.15 0.72,-0.22 1.43,-0.59 2.5,-0.59 0.63,-0.02 2.03,0.16 2.85,1.52 0.74,2.14 1.54,4.45 2.35,6.55l47.79 135.75c3.06,9.1 6.16,18.69 9.54,26.35 3.01,6.93 7.77,9.65 16.12,9.68l2.64 0 0 1.17 0 8.98 -1.19 -0.07 0 0zm-73.54 -2.33l0 0c12.85,-0.45 25.43,-0.94 37.82,-0.94 12.06,0 23.35,0.49 34.62,0.94l0 -5.42 -0.35 0c-8.89,0.05 -15.04,-3.43 -18.22,-11.08 -3.38,-7.87 -6.55,-17.5 -9.59,-26.6l-47.78 -135.72c-0.78,-2.06 -1.54,-4.42 -2.22,-6.26 -0.23,-0.25 -0.17,-0.25 -0.38,-0.25l-0.48 0c-0.54,0 -0.84,0.16 -1.5,0.34 -5.01,3.27 -15.42,8.36 -23.12,10.39 -1.59,9.82 -6.25,22.79 -9.64,32.39l-41.53 119.13c-3.95,11.25 -13.04,17.69 -23.61,17.66l-0.4 0 0 5.42c8.87,-0.45 17.89,-0.94 26.9,-0.94 10.01,0 20.28,0.49 30.17,0.94l0 -5.42 -1.68 0c-8.44,-0.11 -20.23,-1.05 -20.56,-10.22 0.01,-5.18 3.2,-11.81 5.74,-20.58l1.13 0.35 -1.13 -0.39 8.55 -27.75 60.5 0 10.41 30.85c2.93,8.33 5.27,15.24 5.27,19.06 -0.35,7.96 -11.3,8.52 -17.2,8.68l-1.73 0.02 0 5.4 0.01 0zm-53.06 -76.32l0 0 24.85 -75.7 0.88 0 0.54 0 0 1.13 -0.3 0.06 0.3 -0.06 0 -1.13 0.77 0 24.62 75.7 -51.66 0zm3.12 -2.25l0 0 45.41 0 -22.57 -69.55 -22.84 69.55zm22.01 -71.98l0 0 0.6 -0.21 -0.6 0.21z"/>
   <path class="fil2" d="M2484.46 592.09c-19.46,0 -20.23,4.68 -24.15,23.61l-7.79 0c1.03,-7.26 2.35,-14.51 3.15,-22.07 1.05,-7.26 1.52,-14.5 1.52,-22.03l6.25 0c2.08,7.81 8.59,7.53 15.56,7.53l133.93 0c6.96,0 13.44,-0.25 13.98,-8.05l6.21 1.03c-1,7.02 -2.01,14.02 -2.82,21.03 -0.54,7 -0.54,14.02 -0.54,21l-7.79 2.91c-0.47,-9.59 -1.76,-24.96 -19.18,-24.96l-42.56 0 0 138.1c0,20 9.12,22.3 21.53,22.3l4.93 0 0 7.82c-10.11,0 -28.24,-1.03 -42.29,-1.03 -15.54,0 -33.74,1.03 -43.84,1.03l0 -7.82 4.9 0c14.31,0 21.58,-1.28 21.58,-21.77l0 -138.63 -42.58 0 0 0z"/>
   <path class="fil2" d="M2586.69 761.41c-10.18,0 -28.35,-1.05 -42.28,-1.05 -15.52,0 -33.68,1.05 -43.85,1.05l-1.16 0 0 -1.1 0 -8.94 1.16 0 4.9 0c14.31,-0.35 20.05,-0.53 20.4,-20.65l-0.03 -137.51 -41.37 0 0 -1.12 0 -1.15 43.66 0 0 139.78c0,20.82 -8.4,22.87 -22.66,22.92l-3.82 0 0 5.55c10.28,-0.11 27.71,-1.05 42.77,-1.05 13.55,0 30.89,0.94 41.15,1.05l0 -5.55 -3.84 0c-12.47,-0.05 -22.57,-3.04 -22.61,-23.45l0 -139.25 43.68 0c17.43,0.07 19.71,14.87 20.2,24.5l5.67 -2.07c0,-6.77 0.02,-13.54 0.52,-20.35 0.72,-6.67 1.68,-13.33 2.65,-19.95l-3.92 -0.66c-1.19,7.54 -8.53,7.96 -14.98,7.85l-133.93 0 -1.31 0c-6.13,0.07 -12.74,-0.29 -15.11,-7.57l-4.25 0c-0.07,7.19 -0.56,14.17 -1.57,21.08 -0.69,7.14 -1.96,14.02 -2.94,20.85l5.56 0c3.43,-18.1 5.69,-23.96 25.08,-23.68l0 1.15 0 1.12c-19.23,0.34 -18.8,3.59 -23.05,22.77l-0.19 0.89 -0.91 0 -9.1 0 0.16 -1.31c1.08,-7.31 2.38,-14.56 3.13,-22.05 1.07,-7.26 1.57,-14.45 1.57,-21.91l0 -1.12 1.11 0 7.08 0 0.23 0.81c1.82,6.54 6.55,6.58 13.18,6.68l1.31 0.04 133.95 0c7.15,-0.14 12.39,-0.25 12.84,-7.02l0.07 -1.23 1.23 0.25 7.36 1.15 -0.19 1.14c-1.07,6.95 -2.06,13.97 -2.85,20.91 -0.53,6.92 -0.53,13.95 -0.53,20.93l0 0.83 -0.73 0.28 -9.19 3.34 -0.05 -1.51c-0.67,-9.74 -1.7,-23.87 -18.1,-23.87l-41.44 0 0 136.98c0.28,19.57 8.04,20.91 20.37,21.18l6.09 0 0 1.12 0 8.92 -1.12 0 0 0z"/>
   <path class="fil2" d="M2642.71 752.49l3.62 0c9.38,0 19.18,-1.26 19.18,-14.79l0 -135.96c0,-13.55 -9.8,-14.81 -19.18,-14.81l-3.62 0 0 -7.8c10.13,0 25.67,1.03 38.36,1.03 13.02,0 28.6,-1.03 40.79,-1.03l0 7.8 -3.64 0c-9.32,0 -19.23,1.28 -19.23,14.81l0 135.96c0,13.53 9.91,14.79 19.23,14.79l3.64 0 0 7.82c-12.47,0 -28.05,-1.03 -40.98,-1.03 -12.74,0 -28.04,1.03 -38.17,1.03l0 -7.82z"/>
   <path class="fil2" d="M2721.86 761.41c-12.53,0 -28.07,-1.07 -41,-1.07 -12.69,0 -28.02,1.07 -38.15,1.07l-1.14 0 0 -1.1 0 -7.82 0 -1.12 1.14 0 3.64 0c9.38,-0.14 17.97,-0.97 18.01,-13.67l0 -135.96c-0.04,-12.67 -8.65,-13.55 -18.01,-13.72l-4.78 0 0 -1.09 0 -8.91 1.14 0c10.13,0 25.73,0.98 38.36,0.98 12.95,0 28.51,-0.98 40.79,-0.98l1.11 0 0 1.11 0 8.89 -1.11 0 -3.62 0c-9.48,0.19 -18.01,1.05 -18.13,13.72l0 135.96c0.12,12.7 8.65,13.53 18.13,13.67l4.73 0 0 1.12 0 8.92 -1.11 0 0 0zm-1.15 -2.27l0 0 0 -5.5 -2.47 0c-9.31,0 -20.32,-1.63 -20.32,-15.94l0 -135.96c0,-14.35 11.01,-15.96 20.32,-15.96l2.47 0 0 -5.52c-11.99,0.07 -26.99,1.02 -39.64,1.02 -12.28,0 -27.16,-0.95 -37.22,-1.02l0 5.52 2.5 0c9.22,0 20.28,1.61 20.32,15.96l0 135.96c-0.04,14.31 -11.1,15.94 -20.32,15.94l-2.5 0 0 5.5c10.01,-0.11 24.69,-1 37.01,-1 12.58,0 27.62,0.94 39.85,1l0 0z"/>
   <path class="fil2" d="M2825.36 575.24c55.3,0 99.4,34.3 99.4,89.57 0,59.71 -42.82,99.38 -98.05,99.38 -55.08,0 -97.08,-37.38 -97.08,-93.17 0,-53.97 41.76,-95.78 95.73,-95.78l0 0zm3.92 177.53l0 0c50.35,0 59.11,-44.42 59.11,-82.26 0,-37.94 -20.44,-83.86 -63.54,-83.86 -45.43,0 -58.9,40.5 -58.9,75.24 0,46.46 21.28,90.88 63.33,90.88l0 0z"/>
   <path class="fil2" d="M2728.48 671.02c0.1,-54.6 42.35,-96.85 96.86,-96.92l0 1.14 0 1.1c-53.34,0 -94.62,41.27 -94.67,94.66 0.12,55.18 41.54,92 96.02,92.02 54.7,-0.02 96.91,-39.15 96.98,-98.26 -0.05,-54.57 -43.47,-88.35 -98.33,-88.42l0 -1.1 0 -1.14c55.76,0.04 100.43,34.69 100.54,90.66 -0.05,60.32 -43.42,100.43 -99.19,100.54 -55.49,-0.13 -98.11,-37.87 -98.21,-94.3l0 0 0 0.02zm36.35 -9.13l0 0c0.07,-34.92 13.72,-76.41 60.02,-76.41 44.05,0.1 64.63,46.9 64.7,85.03 -0.07,37.84 -8.98,83.34 -60.27,83.34l0 -1.08 0 -1.12c49.35,-0.07 57.89,-43.3 58.01,-81.14 0,-37.62 -20.26,-82.67 -62.44,-82.72 -44.52,0.05 -57.7,39.53 -57.77,74.1 0.04,46.23 21.11,89.65 62.2,89.76l0 1.12 0 1.08c-43.07,-0.05 -64.38,-45.22 -64.45,-91.96l0 0z"/>
   <path class="fil2" d="M3099.64 709.14l0.5 -0.49 0 -97.32c0,-21.32 -14.82,-24.42 -22.61,-24.42l-5.61 0.02 0 -7.8c12.16,0 24.09,1.03 36.26,1.03 10.67,0 21.29,-1.03 31.95,-1.03l0 7.8 -3.92 0c-10.87,0 -23.08,2.07 -23.08,32.94l0 118.13c0,9.06 0.24,18.13 1.56,26.18l-9.84 0 -133.66 -148.99 0 106.95c0,22.58 4.39,30.35 24.36,30.35l4.44 0 0 7.82c-11.18,0 -22.31,-1.03 -33.48,-1.03 -11.67,0 -23.64,1.03 -35.31,1.03l0 -7.82 3.66 0c17.93,0 23.31,-12.18 23.31,-32.92l0 -109.33c0,-14.52 -11.89,-23.31 -23.59,-23.31l-3.38 0 0 -7.8c9.85,0 19.98,1.03 29.84,1.03 7.78,0 15.29,-1.03 23.1,-1.03l115.5 130.01 0 0z"/>
   <path class="fil2" d="M3114.7 765.3l-10.72 -0.39 -131.67 -146.79 0 104.02c0.28,22.56 3.71,28.95 23.2,29.19l5.62 0 0 1.17 0 8.91 -1.14 0c-11.25,0 -22.38,-1.05 -33.48,-1.05 -11.63,0 -23.55,1.05 -35.33,1.05l-1.08 0 0 -1.12 0 -8.96 1.08 0 3.68 0c17.11,-0.05 22.01,-11.06 22.22,-31.76l0 -109.33c-0.03,-13.81 -11.34,-22.21 -22.5,-22.22l-4.48 0 0 -1.09 0 -8.91 1.08 0c9.94,0 20.06,0.98 29.86,0.98 7.7,0 15.19,-0.98 23.95,-0.61l114.03 128.4 0 -95.45c-0.08,-20.65 -13.89,-23.13 -21.49,-23.32l-6.82 0 0 -1.09 0 -8.91 1.17 0c12.22,0 24.19,0.98 36.26,0.98 10.64,0 21.23,-0.98 31.99,-0.98l1.12 0 0 1.11 0 8.89 -1.12 0 -3.92 0c-10.67,0.31 -21.72,1.27 -21.94,31.85l0 118.11c0,9.06 0.21,18.11 1.47,26.06l0.21 1.26 -1.25 0 0 0zm-9.85 -2.28l0 0 8.49 0c-1.12,-7.79 -1.33,-16.43 -1.33,-25.04l0 -118.11c0,-31.21 13.09,-34.02 24.2,-34.11l2.82 0 0 -5.5c-10.24,0.07 -20.49,1.02 -30.89,1.02 -11.79,0 -23.41,-0.95 -35.16,-1.02l0 5.5 4.55 0c8.05,0.09 23.7,3.62 23.7,25.58l-0.28 98.08 -0.49 0.54 -0.82 0.82 -115.49 -130.52c-7.66,0 -15.22,1.02 -23.11,1.02 -9.56,0 -19.29,-0.95 -28.74,-1.02l0 5.5 2.29 0c12.18,0.09 24.71,9.27 24.71,24.48l0 109.33c0,20.75 -5.79,34.02 -24.44,34.11l-2.56 -0.04 0 5.5c11.27,-0.06 22.82,-0.98 34.23,-0.98 10.82,0 21.56,0.92 32.34,0.98l0 -5.46 -3.36 0c-20.37,-0.04 -25.46,-8.98 -25.46,-31.54l0 -109.87 134.8 150.75 0 0zm-5.21 -53.9l0 0 0.82 -0.73 -0.82 0.73zm-0.62 -0.47l0 0 0 -0.11 -0.22 -0.19 0.22 0.3z"/>
   <path class="fil2" d="M3181.83 723.19c-2.53,8.79 -5.68,15.59 -5.68,20.21 0,7.83 10.92,9.09 19.44,9.09l2.89 0 0 7.82c-10.38,-0.56 -21.04,-1.03 -31.42,-1.03 -9.38,0 -18.67,0.47 -27.98,1.03l0 -7.82 1.47 0c10.17,0 18.78,-5.97 22.61,-16.89l41.56 -119.09c3.35,-9.61 8.05,-22.6 9.56,-32.22 8.31,-2.82 18.69,-8 23.66,-11.13 0.73,-0.26 1.26,-0.54 2.06,-0.54 0.77,0 1.25,0 1.77,0.8 0.81,2.05 1.61,4.41 2.38,6.48l47.72 135.77c3.12,9.06 6.22,18.65 9.63,26.46 3.11,7.28 8.59,10.36 17.11,10.36l1.6 0 0 7.82c-11.71,-0.56 -23.38,-1.03 -35.86,-1.03 -12.69,0 -25.67,0.47 -38.92,1.03l0 -7.82 2.89 0c5.91,0 16.1,-1.02 16.1,-7.51 0,-3.38 -2.37,-10.38 -5.25,-18.71l-10.08 -30.1 -58.93 0 -8.33 27.02 0 0zm37.94 -115l0 0 -0.52 0 -24.17 73.45 48.56 0 -23.87 -73.45z"/>
   <path class="fil2" d="M3320.08 761.41c-11.67,-0.47 -23.32,-1.05 -35.73,-1.05 -12.65,0 -25.64,0.58 -38.89,1.05l-1.15 0.07 0 -1.19 0 -8.92 1.12 0 2.83 0c6.04,0 14.98,-1.4 15,-6.39 0.05,-2.96 -2.27,-10.03 -5.18,-18.34l-9.85 -29.35 -57.28 0 -8.03 26.22c-2.59,8.89 -5.69,15.71 -5.64,19.89 0,6.37 9.72,7.97 18.31,7.97l3.95 0 0 1.12 0 8.99 -1.15 -0.07c-10.38,-0.47 -21,-1.05 -31.33,-1.05 -9.31,0 -18.62,0.58 -27.98,1.05l-1.14 0.07 0 -1.19 0 -8.92 1.14 0 1.47 0c9.68,-0.04 17.78,-5.6 21.56,-16.12l41.53 -119.13c3.32,-9.62 8,-22.56 10.31,-32.86 8.13,-2.84 18.56,-8.02 23.6,-11.19 0.69,-0.22 1.39,-0.54 2.44,-0.54 0.7,-0.07 2.03,0.09 2.85,1.52 0.77,2.03 1.52,4.4 2.4,6.5l47.72 135.73c3.1,9.12 6.21,18.71 9.57,26.43 3.03,6.87 7.77,9.59 16.05,9.66l2.69 0 0 1.12 0 8.99 -1.19 -0.07 0 0zm-73.53 -2.29l0 0c12.83,-0.49 25.46,-1 37.8,-1 12.07,0 23.4,0.51 34.7,0.96l-0.03 -5.42 -0.44 0c-8.79,0.02 -14.91,-3.43 -18.13,-11.08 -3.43,-7.87 -6.53,-17.52 -9.63,-26.56l-47.75 -135.76c-0.77,-2.06 -1.56,-4.42 -2.19,-6.19 -0.23,-0.32 -0.19,-0.32 -0.4,-0.32l-0.49 0c-0.53,0 -0.83,0.18 -1.46,0.35 -5.05,3.19 -15.45,8.37 -23.13,10.38 -1.61,9.82 -6.32,22.75 -9.66,32.39l-41.56 119.13c-3.94,11.25 -13.01,17.68 -23.63,17.66l-0.38 0 0 5.42c8.94,-0.45 17.86,-0.96 26.89,-0.96 10.07,0 20.3,0.51 30.28,0.96l0 -5.42 -1.75 0c-8.44,-0.11 -20.28,-1.02 -20.6,-10.26 0.05,-5.14 3.27,-11.74 5.78,-20.54l1.06 0.33 -1.06 -0.37 8.55 -27.75 60.52 0 10.39 30.85c2.87,8.35 5.22,15.24 5.22,19.06 -0.37,7.96 -11.25,8.52 -17.2,8.68l-1.7 0 0 5.46 0 0zm-53.01 -76.37l0 0 24.89 -75.69 0.78 0 0.56 0 0 1.13 -0.28 0.06 0.28 -0.06 0 -1.13 0.81 0 24.53 75.69 -51.57 0zm3.1 -2.24l0 0 45.39 0 -22.57 -69.52 -22.82 69.52 0 0zm22.05 -71.98l0 0 0.52 -0.21 -0.52 0.21z"/>
   <path class="fil2" d="M3385.59 734.86c0,10.38 7.19,13.48 15.52,14.55 10.62,0.78 22.31,0.78 34.3,-0.53 10.87,-1.31 20.21,-7.54 24.85,-14.02 4.15,-5.72 6.49,-13 8.05,-18.69l7.52 -0.01c-2.83,14.8 -6.47,29.38 -9.6,44.15 -22.79,0 -45.68,-1.03 -68.48,-1.03 -22.87,0 -45.66,1.03 -68.5,1.03l0 -7.84 3.56 0c9.39,0 19.54,-1.24 19.54,-17.36l0 -133.37c0,-13.55 -10.15,-14.81 -19.54,-14.81l-3.56 0 0 -7.8c13.71,0 27.22,1.03 40.95,1.03 13.29,0 26.24,-1.03 39.48,-1.03l0 7.8 -6.52 0c-9.84,0 -17.57,0.28 -17.57,14l0 133.93 0 0z"/>
   <path class="fil2" d="M3466.23 761.41c-22.88,0 -45.71,-1.05 -68.48,-1.05 -22.86,0 -45.68,1.05 -68.55,1.05l-1.1 0 0 -1.12 0 -8.92 1.1 0 3.61 0c9.41,-0.21 18.3,-0.86 18.41,-16.26l0 -133.43c-0.11,-12.61 -8.95,-13.47 -18.41,-13.66l-4.71 0 0 -1.09 0 -8.91 1.1 0c13.79,0 27.32,0.98 41.02,0.98 13.18,0 26.13,-0.98 39.46,-0.98l1.07 0 0 1.11 0 8.89 -1.07 0 -6.51 0c-10.06,0.29 -16.32,-0.18 -16.52,12.91l0 133.93c0.07,9.66 6.41,12.27 14.51,13.41 4.59,0.33 9.4,0.52 14.4,0.52 6.34,0 12.95,-0.31 19.64,-1.03 10.59,-1.24 19.69,-7.33 24.15,-13.53 4.01,-5.54 6.3,-12.67 7.86,-18.34l0.22 -0.85 0.86 0 8.91 0 -0.23 1.36c-2.94,14.84 -6.49,29.35 -9.64,44.12l-0.21 0.89 -0.89 0 0 0 0 0zm-0.95 -2.27l0 0c3.01,-14.07 6.42,-27.85 9.21,-41.88l-5.32 0c-1.63,5.65 -3.94,12.62 -8.02,18.29 -4.85,6.73 -14.45,13.05 -25.69,14.45 -6.81,0.7 -13.54,1.05 -19.91,1.05 -5.03,0 -9.89,-0.23 -14.6,-0.56 -8.43,-0.93 -16.62,-4.53 -16.59,-15.63l0 -133.95c0,-14.4 9.14,-15.13 18.81,-15.13l5.36 0 0 -5.52c-12.79,0.07 -25.39,1.04 -38.31,1.04 -13.44,0 -26.58,-0.97 -39.9,-1.04l0 5.52 2.49 0c9.27,0 20.61,1.61 20.61,15.9l0 133.43c0,16.8 -11.29,18.53 -20.61,18.53l-2.49 0 0 5.5c22.45,-0.02 44.89,-1 67.43,-1 22.56,0 45.08,0.98 67.53,1l0 0z"/>
   <path class="fil2" d="M3472.68 571.76c15.65,0 27.32,12.02 27.32,27.42 0,15.33 -11.67,27.25 -27.32,27.25 -15.64,0 -27.33,-11.92 -27.33,-27.25 0,-15.4 11.69,-27.42 27.33,-27.42zm0 49.58l0 0c12.22,0 21.62,-10.45 21.62,-22.16 0,-11.79 -9.26,-22.31 -21.62,-22.31 -12.28,0 -21.68,10.52 -21.68,22.31 0,11.71 9.4,22.16 21.68,22.16zm-13.59 -7.77l0 0 0 -1.35c3.36,-0.47 3.97,-0.35 3.97,-2.45l0 -20.21c0,-2.86 -0.32,-3.82 -3.85,-3.68l0 -1.38 13.98 0c4.81,0 9.22,2.27 9.22,7.24 0,4.06 -2.69,7.07 -6.45,8.25l4.48 6.26c2.1,2.84 4.46,5.51 6.03,6.44l0 0.88 -5.33 0c-2.56,0 -4.78,-5.38 -9.82,-12.6l-3.03 0 0 9.1c0,1.8 0.63,1.68 3.99,2.15l0 1.35 -13.19 0 0 0zm9.2 -14.39l0 0 3.22 0c3.54,0 5.18,-2.68 5.18,-6.98 0,-4.36 -2.55,-5.9 -5.35,-5.9l-3.05 0 0 12.88z"/>
   <path class="fil0" d="M670.65 906.96c247.87,1.19 474.13,-202.14 474.13,-449.53 0,-270.53 -226.26,-457.52 -474.13,-457.41l-213.32 0c-250.87,-0.11 -457.33,186.94 -457.33,457.41 0,247.44 206.46,450.72 457.33,449.53l213.32 0z"/>
   <path class="fil1" d="M458.32 37.48c-229.21,0.09 -414.96,185.88 -415.01,415.2 0.05,229.28 185.8,415.07 415.01,415.14 229.29,-0.07 415.07,-185.86 415.09,-415.14 -0.02,-229.32 -185.8,-415.11 -415.09,-415.2zm-263.06 415.2l0 0c0.21,-112.05 70.2,-207.6 168.88,-245.58l0 491.1c-98.68,-37.94 -168.67,-133.44 -168.88,-245.52zm357.21 245.62l0 0 0 -491.22c98.72,37.87 168.83,133.5 169,245.6 -0.17,112.15 -70.28,207.68 -169,245.62z"/>
   <path class="fil2" d="M1290.15 195.13c0,-42.89 -22.38,-40.08 -43.82,-40.55l0 -12.39c18.59,0.91 37.64,0.91 56.26,0.91 20.04,0 47.22,-0.91 82.53,-0.91 123.48,0 190.72,82.5 190.72,166.96 0,47.23 -27.63,165.99 -196.46,165.99 -24.3,0 -46.76,-0.95 -69.16,-0.95 -21.45,0 -42.45,0.48 -63.89,0.95l0 -12.39c28.6,-2.87 42.44,-3.83 43.82,-36.28l0 -231.34 0 0zm46.74 223.73l0 0c0,36.73 26.25,41.02 49.62,41.02 103.04,0 136.86,-77.76 136.86,-148.84 0,-89.17 -57.24,-153.55 -149.25,-153.55 -19.59,0 -28.58,1.4 -37.23,1.9l0 259.47 0 0z"/>
   <path class="fil2" d="M1592.59 462.77l9.03 0c13.33,0 22.89,0 22.89,-15.79l0 -129.24c0,-20.97 -7.14,-23.89 -24.8,-33.38l0 -7.64c22.4,-6.72 49.14,-15.72 51.01,-17.17 3.38,-1.91 6.21,-2.4 8.61,-2.4 2.36,0 3.34,2.87 3.34,6.7l0 183.13c0,15.79 10.5,15.79 23.86,15.79l8.08 0 0 12.39c-16.22,0 -32.93,-0.95 -50.05,-0.95 -17.17,0 -34.35,0.46 -51.97,0.95l0 -12.39 0 0zm51.01 -279.07l0 0c-12.41,0 -23.36,-11.44 -23.36,-23.83 0,-11.96 11.44,-22.95 23.36,-22.95 12.35,0 23.38,10.07 23.38,22.95 0,12.88 -10.54,23.83 -23.38,23.83z"/>
   <path class="fil2" d="M1739.92 320.57c0,-17.64 -5.27,-22.38 -27.63,-31.44l0 -9.05c20.49,-6.69 40.02,-12.9 62.93,-22.93 1.42,0 2.82,0.96 2.82,4.76l0 31.03c27.23,-19.55 50.61,-35.79 82.6,-35.79 40.47,0 54.79,29.58 54.79,66.77l0 123.06c0,15.79 10.48,15.79 23.85,15.79l8.59 0 0 12.39c-16.74,0 -33.42,-0.95 -50.55,-0.95 -17.19,0 -34.37,0.46 -51.52,0.95l0 -12.39 8.57 0c13.39,0 22.87,0 22.87,-15.79l0 -123.5c0,-27.23 -16.6,-40.57 -43.83,-40.57 -15.25,0 -39.57,12.41 -55.37,22.91l0 141.16c0,15.77 10.53,15.77 23.92,15.77l8.56 0 0 12.41c-16.68,0 -33.41,-0.97 -50.56,-0.97 -17.15,0 -34.36,0.48 -51.51,0.97l0 -12.41 8.6 0c13.35,0 22.87,0 22.87,-15.77l0 -126.41 0 0z"/>
   <path class="fil2" d="M1984.13 343.5c-0.99,4.3 -0.99,11.44 0,27.69 2.8,45.29 31.98,82.48 70.07,82.48 26.25,0 46.8,-14.3 64.42,-31.94l6.67 6.7c-21.96,29.07 -49.14,53.87 -88.22,53.87 -75.84,0 -91.1,-73.47 -91.1,-103.97 0,-93.51 62.94,-121.2 96.3,-121.2 38.66,0 80.17,24.33 80.62,74.89 0,2.9 0,5.72 -0.45,8.63l-4.33 2.85 -133.98 0 0 0zm84.44 -15.28l0 0c11.88,0 13.3,-6.21 13.3,-11.9 0,-24.34 -14.79,-43.91 -41.51,-43.91 -29.05,0 -49.09,21.44 -54.81,55.81l83.02 0 0 0z"/>
   <path class="fil2" d="M2133.86 462.77l12.9 0c13.3,0 22.84,0 22.84,-15.79l0 -134.02c0,-14.77 -17.61,-17.66 -24.8,-21.47l0 -7.13c34.83,-14.8 53.92,-27.23 58.26,-27.23 2.82,0 4.23,1.46 4.23,6.23l0 42.93 1 0c11.9,-18.6 31.96,-49.16 61.02,-49.16 11.94,0 27.18,8.11 27.18,25.29 0,12.88 -9.03,24.36 -22.38,24.36 -14.86,0 -14.86,-11.48 -31.52,-11.48 -8.12,0 -34.81,10.99 -34.81,39.62l0 112.06c0,15.77 9.52,15.77 22.89,15.77l26.69 0 0 12.41c-26.23,-0.49 -46.18,-0.95 -66.74,-0.95 -19.53,0 -39.59,0.46 -56.76,0.95l0 -12.39 0 0z"/>
   <path class="fil2" d="M2317.49 408.83c6.21,31.48 25.27,58.21 60.1,58.21 28.07,0 38.58,-17.17 38.58,-33.87 0,-56.28 -103.95,-38.17 -103.95,-114.96 0,-26.72 21.49,-61.08 73.94,-61.08 15.24,0 35.74,4.33 54.32,13.88l3.38 48.62 -10.99 0c-4.76,-30.01 -21.44,-47.2 -51.99,-47.2 -19.08,0 -37.17,10.97 -37.17,31.47 0,55.86 110.63,38.64 110.63,113.5 0,31.49 -25.29,64.9 -82.04,64.9 -19.07,0 -41.49,-6.67 -58.17,-16.19l-5.25 -54.87 8.61 -2.41 0 0z"/>
   <path class="fil2" d="M2884.98 228.52l-11.9 0c-9.06,-55.77 -48.67,-78.21 -102.06,-78.21 -54.88,0 -134.52,36.7 -134.52,151.17 0,96.43 68.72,165.56 142.13,165.56 47.2,0 86.35,-32.43 95.89,-82.52l10.93 2.84 -10.93 69.63c-20.04,12.44 -73.92,25.31 -105.44,25.31 -111.56,0 -182.12,-72.04 -182.12,-179.37 0,-97.77 87.25,-167.91 180.72,-167.91 38.62,0 75.81,12.44 112.54,25.32l4.76 68.18 0 0z"/>
   <path class="fil2" d="M2902.18 462.77l9.03 0c13.37,0 22.95,0 22.95,-15.79l0 -265.66c0,-31.01 -7.16,-31.97 -25.31,-37.2l0 -7.63c19.08,-6.2 39.11,-14.79 49.12,-20.53 5.2,-2.86 9.07,-5.27 10.47,-5.27 2.9,0 3.87,2.89 3.87,6.72l0 329.57c0,15.79 10.46,15.79 23.83,15.79l8.05 0 0 12.39c-16.13,0 -32.85,-0.95 -50.03,-0.95 -17.15,0 -34.32,0.46 -51.99,0.95l0 -12.39 0.01 0z"/>
   <path class="fil2" d="M3208.38 448.89c0,8.61 5.23,9.08 13.32,9.08 5.74,0 12.88,-0.47 19.09,-0.47l0 10.04c-20.53,1.89 -59.62,11.92 -68.7,14.76l-2.38 -1.44 0 -38.61c-28.58,23.37 -50.56,40.05 -84.44,40.05 -25.74,0 -52.45,-16.68 -52.45,-56.72l0 -122.16c0,-12.39 -1.89,-24.32 -28.56,-26.7l0 -9.07c17.19,-0.47 55.27,-3.32 61.48,-3.32 5.3,0 5.3,3.32 5.3,13.82l0 123.03c0,14.33 0,55.36 41.46,55.36 16.2,0 37.66,-12.41 57.66,-29.06l0 -128.38c0,-9.5 -22.87,-14.74 -39.99,-19.51l0 -8.6c42.86,-2.87 69.62,-6.66 74.34,-6.66 3.87,0 3.87,3.32 3.87,8.59l0 175.97 0 0z"/>
   <path class="fil2" d="M3303.28 291.51c19.06,-16.23 44.8,-34.36 71.05,-34.36 55.34,0 88.69,48.22 88.69,100.17 0,62.48 -45.76,124.98 -113.99,124.98 -35.28,0 -53.87,-11.47 -66.29,-16.68l-14.28 10.94 -9.99 -5.22c4.23,-28.14 6.66,-55.83 6.66,-84.89l0 -205.13c0,-31.01 -7.19,-31.97 -25.3,-37.2l0 -7.63c19.13,-6.2 39.09,-14.79 49.12,-20.53 5.27,-2.86 9.05,-5.27 10.54,-5.27 2.83,0 3.79,2.89 3.79,6.72l0 174.08 0 0 0 0.02zm0 129.71l0 0c0,18.15 17.15,48.7 49.11,48.7 51.03,0 72.48,-50.12 72.48,-92.59 0,-51.49 -39.06,-94.42 -76.28,-94.42 -17.69,0 -32.44,11.47 -45.31,22.46l0 115.85 0 0z"/>
   <path class="fil2" d="M1245.79 752.49l3.64 0c9.33,0 19.18,-1.26 19.18,-14.79l0 -135.96c0,-13.55 -9.85,-14.81 -19.18,-14.81l-3.64 0 0 -7.8c10.11,0 25.69,1.03 38.45,1.03 12.95,0 28.5,-1.03 40.7,-1.03l0 7.8 -3.66 0c-9.29,0 -19.18,1.28 -19.18,14.81l0 135.96c0,13.53 9.89,14.79 19.18,14.79l3.66 0 0 7.82c-12.46,0 -28.05,-1.03 -40.98,-1.03 -12.73,0 -28.06,1.03 -38.17,1.03l0 -7.82 0 0z"/>
   <path class="fil2" d="M1324.94 761.41c-12.53,0 -28.09,-1.05 -41,-1.05 -12.69,0 -27.95,1.05 -38.15,1.05l-1.12 0 0 -1.12 0 -7.79 0 -1.13 1.12 0 3.64 0c9.4,-0.21 17.97,-0.98 18.06,-13.67l0 -135.96c-0.09,-12.69 -8.65,-13.55 -18.06,-13.72l-4.76 0 0 -1.09 0 -8.96 1.12 0c10.2,0 25.76,1.03 38.43,1.03 12.93,0 28.45,-1.03 40.72,-1.03l1.16 0 0 1.19 0 8.86 -1.16 0 -3.62 0c-9.42,0.19 -18.04,1.03 -18.1,13.72l0 135.96c0.06,12.69 8.68,13.46 18.1,13.67l4.78 0 0 1.13 0 8.91 -1.16 0 0 0zm-1.1 -2.22l0 0 0 -5.55 -2.52 0c-9.28,0 -20.3,-1.59 -20.35,-15.94l0 -135.96c0.05,-14.35 11.07,-15.96 20.35,-15.96l2.52 0 0 -5.52c-11.99,0 -27.02,1.02 -39.62,1.02 -12.32,0 -27.23,-0.95 -37.28,-1.02l0 5.52 2.49 0c9.24,0 20.32,1.61 20.32,15.96l0 135.96c0,14.35 -11.08,15.94 -20.32,15.94l-2.49 0 0 5.55c10.05,-0.11 24.71,-1.05 37,-1.05 12.63,0 27.65,0.98 39.9,1.05l0 0z"/>
   <path class="fil2" d="M1503.21 709.14l0.53 -0.49 0 -97.32c0,-21.32 -14.81,-24.42 -22.58,-24.42l-5.72 0.02 0 -7.8c12.22,0 24.15,1.03 36.33,1.03 10.62,0 21.32,-1.03 31.94,-1.03l0 7.8 -3.89 0c-10.92,0 -23.11,2.07 -23.11,32.94l0 118.13c0,9.06 0.26,18.13 1.54,26.18l-9.89 0 -133.6 -148.99 0 106.95c0,22.58 4.36,30.35 24.38,30.35l4.39 0 0 7.82c-11.14,0 -22.27,-1.03 -33.46,-1.03 -11.63,0 -23.59,1.03 -35.28,1.03l0 -7.82 3.63 0c17.92,0 23.34,-12.18 23.34,-32.92l0 -109.33c0,-14.52 -11.97,-23.31 -23.59,-23.31l-3.38 0 0 -7.8c9.86,0 19.97,1.03 29.82,1.03 7.79,0 15.33,-1.03 23.1,-1.03l115.5 130.01 0 0z"/>
   <path class="fil2" d="M1518.25 765.31l-10.71 -0.4 -131.69 -146.78 0 104.01c0.3,22.56 3.74,28.98 23.27,29.23l5.57 0 0 1.12 0 8.92 -1.16 0c-11.21,0 -22.4,-1.05 -33.46,-1.05 -11.63,0 -23.53,1.05 -35.31,1.05l-1.14 0 0 -1.12 0 -8.92 1.14 0 3.66 0c17.15,-0.09 22.05,-11.12 22.24,-31.8l0 -109.31c-0.04,-13.81 -11.38,-22.21 -22.49,-22.24l-4.55 0 0 -1.14 0 -8.86 1.14 0c9.92,0 20.09,0.98 29.82,0.98 7.72,0 15.24,-0.98 23.99,-0.61l114.05 128.4 0 -95.45c-0.14,-20.65 -13.91,-23.13 -21.47,-23.32l-6.88 0 0 -1.14 0 -8.86 1.15 0c12.25,0 24.21,0.98 36.33,0.98 10.57,0 21.2,-0.98 31.92,-0.98l1.14 0 0 1.11 0 8.89 -1.14 0 -3.86 0c-10.71,0.31 -21.7,1.24 -22,31.85l0 118.11c0,9.06 0.26,18.13 1.52,26l0.26 1.33 -1.34 0 0 0zm-9.87 -2.29l0 0 8.59 0c-1.17,-7.79 -1.37,-16.43 -1.37,-25.04l0 -118.11c0,-31.15 13.04,-34.09 24.22,-34.09l2.73 0 0 -5.52c-10.22,0.07 -20.47,1.02 -30.78,1.02 -11.88,0 -23.43,-0.95 -35.19,-1.02l-0.02 5.52 4.59 0c7.98,0 23.73,3.55 23.73,25.56l-0.37 98.08 -0.53 0.54 -0.87 0.81 -115.4 -130.51c-7.7,0 -15.22,1.02 -23.13,1.02 -9.52,0 -19.25,-0.95 -28.67,-1.02l-0.05 5.52 2.31 0c12.18,0 24.69,9.29 24.69,24.48l0 109.31c0,20.74 -5.77,34.02 -24.44,34.09l-2.51 -0.07 0 5.6c11.26,-0.11 22.81,-1.05 34.16,-1.05 10.84,0 21.62,0.94 32.34,1.05l0 -5.53 -3.27 0c-20.44,-0.07 -25.5,-8.96 -25.53,-31.52l0 -109.87 134.77 150.75 0 0zm-5.17 -53.9l0 0 0.83 -0.75 -0.83 0.75zm-0.59 -0.49l0 0 0 -0.09 -0.21 -0.19 0.21 0.28z"/>
   <path class="fil2" d="M1582.56 592.09c-19.5,0 -20.23,4.68 -24.12,23.61l-7.78 0c1.01,-7.26 2.31,-14.51 3.09,-22.07 1.05,-7.26 1.56,-14.5 1.56,-22.03l6.25 0c2.08,7.81 8.56,7.53 15.59,7.53l133.88 0c7.01,0 13.49,-0.25 14.03,-8.05l6.18 1.03c-1,7.02 -2.05,14.02 -2.84,21.03 -0.47,7 -0.47,14.02 -0.47,21l-7.8 2.91c-0.55,-9.59 -1.84,-24.96 -19.2,-24.96l-42.56 0 0 138.1c0,20 9.08,22.3 21.51,22.3l4.93 0 0 7.82c-10.11,0 -28.3,-1.03 -42.28,-1.03 -15.56,0 -33.76,1.03 -43.89,1.03l0 -7.82 4.95 0c14.3,0 21.55,-1.28 21.55,-21.77l0 -138.63 -42.58 0 0 0z"/>
   <path class="fil2" d="M1684.86 761.41c-10.22,0 -28.38,-1.05 -42.33,-1.05 -15.54,0 -33.7,1.05 -43.89,1.05l-1.08 0 0 -1.1 0 -8.94 1.08 0 4.95 0c14.3,-0.35 20.06,-0.53 20.39,-20.65l0 -137.51 -41.42 0 0 -1.12 0 -1.15 43.68 0 0 139.78c0,20.82 -8.4,22.92 -22.65,22.94l-3.81 0 0 5.48c10.24,-0.06 27.68,-1 42.75,-1 13.55,0 30.89,0.94 41.14,1l0 -5.48 -3.79 0c-12.55,-0.02 -22.65,-3.08 -22.65,-23.47l0 -139.25 43.7 0c17.41,0.07 19.69,14.87 20.26,24.5l5.6 -2.07c0,-6.77 0.04,-13.54 0.49,-20.38 0.77,-6.67 1.72,-13.3 2.7,-19.92l-3.97 -0.66c-1.19,7.56 -8.49,7.92 -15.02,7.85l-133.84 0 -1.35 0c-6.09,0 -12.77,-0.28 -15.1,-7.54l-4.27 0c-0.03,7.19 -0.54,14.16 -1.54,21.05 -0.75,7.14 -1.94,13.99 -2.9,20.85l5.56 0c3.41,-18.08 5.64,-23.96 25.01,-23.68l0 1.15 0 1.12c-19.18,0.35 -18.8,3.59 -23.01,22.77l-0.21 0.89 -0.9 0 -9.08 0 0.14 -1.34c1.05,-7.28 2.36,-14.51 3.13,-22.07 1.09,-7.21 1.58,-14.4 1.58,-21.86l0 -1.12 1.1 0 7.12 0 0.2 0.81c1.76,6.54 6.58,6.58 13.17,6.68l1.35 0 133.84 0c7.23,-0.1 12.48,-0.21 12.93,-7l0.11 -1.22 1.17 0.26 7.33 1.15 -0.17 1.14c-1.03,6.93 -2.07,13.95 -2.82,20.91 -0.52,6.92 -0.52,13.93 -0.52,20.93l0 0.83 -0.72 0.28 -9.21 3.34 -0.07 -1.51c-0.68,-9.76 -1.69,-23.87 -18.09,-23.87l-41.42 0 0 136.96c0.22,19.59 7.99,20.93 20.37,21.2l6.07 0 0 1.1 0 8.92 -1.09 0.02 0 0z"/>
   <path class="fil2" d="M1739.55 752.49l3.64 0c9.33,0 19.2,-1.26 19.2,-14.79l0 -135.96c0,-13.55 -9.87,-14.81 -19.2,-14.81l-3.64 0 0 -7.8c15.79,0 42.83,1.03 64.58,1.03 21.84,0 48.79,-1.03 66.41,-1.03 -0.42,11.14 -0.19,28.31 0.58,39.7l-7.82 2.09c-1.25,-16.86 -4.36,-30.35 -31.63,-30.35l-36.03 0 0 67.97 30.84 0c15.57,0 18.97,-8.8 20.49,-22.85l7.79 0c-0.51,10.17 -0.79,20.28 -0.79,30.4 0,9.88 0.28,19.72 0.79,29.59l-7.79 1.54c-1.52,-15.56 -2.31,-25.67 -20.23,-25.67l-31.1 -0.02 0 60.45c0,16.9 14.98,16.9 31.62,16.9 31.14,0 44.87,-2.1 52.66,-31.66l7.28 1.79c-3.41,13.79 -6.49,27.51 -8.8,41.3 -16.63,0 -46.48,-1.03 -69.81,-1.03 -23.4,0 -54.25,1.03 -69.04,1.03l0 -7.82 0 0z"/>
   <path class="fil2" d="M1878.36 761.41c-16.66,0 -46.49,-1.07 -69.79,-1.07 -23.38,0 -54.21,1.07 -69.04,1.07l-1.08 0 0 -1.1 0 -7.82 0 -1.12 1.08 0 3.64 0c9.42,-0.14 17.94,-0.98 18.08,-13.67l0 -135.96c-0.14,-12.67 -8.66,-13.51 -18.08,-13.72l-4.72 0 0 -1.09 0 -8.91 1.08 0c15.84,0 42.85,0.98 64.6,0.98 21.82,0 48.74,-0.98 66.41,-0.98l1.17 0 -0.05 1.14c-0.17,3.9 -0.24,8.52 -0.24,13.41 0,8.97 0.24,18.79 0.77,26.19l0.03 0.93 -0.87 0.27 -9.12 2.36 -0.05 -1.33c-1.53,-16.84 -3.78,-29.05 -30.51,-29.32l-34.96 0 -0.04 65.7 29.81 0c14.94,-0.14 17.62,-7.79 19.39,-21.77l0.08 -1.01 1 0 8.94 0 -0.01 1.15c-0.49,10.12 -0.83,20.23 -0.83,30.35 0,9.81 0.34,19.67 0.83,29.54l0.01 0.92 -0.92 0.21 -9.02 1.81 -0.08 -1.23c-1.79,-15.84 -1.93,-24.5 -19.17,-24.71l-29.99 -0.02 0 59.37c0.03,15.76 13.63,15.68 30.54,15.76 31.23,-0.17 43.76,-1.68 51.59,-30.83l0.26 -1.05 1.1 0.19 8.31 2.15 -0.26 1.07c-3.34,13.76 -6.46,27.48 -8.78,41.21l-0.21 0.93 -0.9 0 0 0zm-0.94 -2.27l0 0c2.26,-13.09 5.21,-26.22 8.4,-39.29l-5.13 -1.3c-7.77,29.05 -22.82,31.64 -53.44,31.45 -16.35,0 -32.71,0 -32.78,-18.02l0 -61.57 32.23 0c18.13,-0.21 19.99,10.74 21.27,25.51l5.61 -1.17c-0.5,-9.55 -0.75,-19.14 -0.75,-28.66 0,-9.79 0.25,-19.5 0.75,-29.26l-5.61 0c-1.44,13.51 -5.67,23.01 -21.49,22.83l-32.01 0 0 -70.26 37.2 0c27.01,-0.18 31.49,13.75 32.62,30.08l5.6 -1.52c-0.43,-7.32 -0.75,-16.71 -0.75,-25.39 0,-4.45 0.11,-8.63 0.25,-12.31 -17.63,0.07 -43.91,1.02 -65.26,1.02 -21.33,0 -47.58,-0.95 -63.48,-1.02l0 5.52 2.52 0c9.26,0 20.31,1.61 20.34,15.96l0 135.96c-0.03,14.31 -11.08,15.89 -20.34,15.98l-2.52 0 0 5.46c15.14,-0.02 45.12,-0.98 67.92,-0.98 22.89,0 52.12,0.96 68.85,0.98l0 0z"/>
   <path class="fil2" d="M1922.22 606.62c0,-18.92 -10.36,-19.71 -18.45,-19.71l-4.67 0.02 0 -7.82c8.31,0 24.4,1.05 40.23,1.05 15.56,0 28.04,-1.05 41.76,-1.05 32.69,0 61.77,8.84 61.77,45.73 0,23.31 -15.55,37.59 -36.05,45.67l44.35 66.4c7.28,10.97 12.44,14.05 25.18,15.56l0 7.84c-8.57,0 -16.89,-1.03 -25.43,-1.03 -8.05,0 -16.38,1.03 -24.39,1.03 -19.97,-26.22 -37.14,-54.25 -53.99,-84.13l-17.08 0 0 55.57c0,20 9.31,20.74 21.23,20.74l4.69 0 0 7.82c-14.84,0 -29.82,-1.03 -44.63,-1.03 -12.47,0 -24.67,1.03 -37.64,1.03l0 -7.82 4.67 0c9.65,0 18.45,-4.36 18.45,-13.99l0 -131.88 0 0zm33.23 60.22l0 0 12.67 0c25.97,0 39.94,-9.85 39.94,-40.5 0,-23.06 -14.77,-37.87 -37.89,-37.87 -7.79,0 -11.1,0.81 -14.72,1.05l0 77.32 0 0z"/>
   <path class="fil2" d="M2076.34 761.41c-8.7,0 -16.96,-1.05 -25.48,-1.05 -7.93,0 -16.2,1.05 -25.25,0.61 -19.9,-26.11 -36.96,-53.98 -53.73,-83.63l-15.33 0 0 54.37c0.27,19.53 8.11,19.38 20.11,19.66l5.81 0 0 1.12 0 8.92 -1.14 0c-14.84,0 -29.89,-1.05 -44.62,-1.05 -12.41,0 -24.57,1.05 -37.61,1.05l-1.14 0 0 -1.12 0 -8.92 1.14 0 4.67 0c9.35,-0.06 17.24,-4.12 17.28,-12.87l0 -131.86c-0.2,-18.43 -9.23,-18.33 -17.28,-18.59l-5.81 0 0 -1.12 0 -8.94 1.14 0c8.42,0 24.43,1.01 40.23,1.01 15.49,0 27.97,-1.01 41.78,-1.01 32.7,0.07 62.82,9.1 62.91,46.78 0,23.45 -15.49,38.08 -35.53,46.25l43.61 65.28c7.25,10.76 11.76,13.46 24.4,15.07l0.96 0.14 0 0.98 0 8.92 -1.12 0 0 0zm-120.92 -86.35l0 0 17.74 0 0.3 0.58c16.92,29.82 33.97,57.82 53.08,83.55 7.91,0 16.24,-1.07 24.32,-1.07 8.3,0 16.28,0.91 24.36,1.03l0 -5.68c-12.18,-1.51 -17.88,-5.15 -24.97,-15.93l-45.15 -67.57 1.28 -0.52c20.3,-7.98 35.33,-21.86 35.35,-44.68 -0.02,-36.02 -27.99,-44.37 -60.62,-44.51 -13.69,0 -26.15,1.04 -41.78,1.04 -15.24,0 -30.64,-0.97 -39.13,-1.04l0 5.52 3.57 0c8.05,0.01 19.53,1.34 19.53,20.86l0 131.86c0,10.42 -9.76,15.16 -19.53,15.18l-3.57 0 0 5.47c12.5,-0.03 24.31,-1.03 36.51,-1.03 14.51,0 29.14,1 43.5,1.03l0 -5.47 -3.55 0c-11.83,-0.02 -22.38,-1.49 -22.38,-21.97l0 -56.65 1.14 0 0 0zm0 -7.12l0 0 -1.14 0 0 -79.47 1 -0.09c3.53,-0.28 7.05,-1.01 14.89,-1.01 23.64,0 39.01,15.36 39.04,39.03 -0.07,30.99 -14.93,41.52 -41.09,41.54l-12.7 0 0 0zm12.7 -2.24l0 0c25.69,-0.21 38.62,-9.13 38.89,-39.29 -0.14,-22.68 -14.23,-36.75 -36.84,-36.84 -7.02,0 -10.31,0.65 -13.62,0.93l0 75.2 11.57 0 0 0z"/>
   <path class="fil2" d="M2252.53 709.14l0.47 -0.49 0 -97.32c0,-21.32 -14.78,-24.42 -22.55,-24.42l-5.69 0.02 0 -7.8c12.18,0 24.1,1.03 36.31,1.03 10.66,0 21.26,-1.03 31.97,-1.03l0 7.8 -3.92 0c-10.9,0 -23.1,2.07 -23.1,32.94l0 118.13c0,9.06 0.27,18.13 1.54,26.18l-9.85 0 -133.63 -148.99 0 106.95c0,22.58 4.41,30.35 24.38,30.35l4.41 0 0 7.82c-11.13,0 -22.31,-1.03 -33.44,-1.03 -11.73,0 -23.65,1.03 -35.32,1.03l0 -7.82 3.61 0c17.92,0 23.38,-12.18 23.38,-32.92l0 -109.33c0,-14.52 -11.94,-23.31 -23.59,-23.31l-3.4 0 0 -7.8c9.84,0 20,1.03 29.84,1.03 7.73,0 15.29,-1.03 23.08,-1.03l115.5 130.01 0 0z"/>
   <path class="fil2" d="M2267.56 765.3l-10.69 -0.37 -131.7 -146.8 0 103.99c0.31,22.58 3.72,28.98 23.31,29.25l5.49 0 0 1.12 0 8.92 -1.14 0c-11.23,0 -22.34,-1.07 -33.47,-1.07 -11.59,0 -23.58,1.07 -35.25,1.07l-1.17 0 0 -1.1 0 -8.94 1.17 0 3.61 0c17.11,-0.07 22.03,-11.12 22.19,-31.87l0 -109.26c-0.02,-13.82 -11.33,-22.21 -22.42,-22.22l-4.55 0 0 -1.09 0 -8.94 1.17 0c9.89,0 20.04,1.01 29.84,1.01 7.63,0 15.15,-1.01 23.85,-0.66l114.08 128.45 0 -95.48c-0.08,-20.63 -13.89,-23.19 -21.43,-23.29l-6.86 0 0 -1.09 0 -8.94 1.13 0c12.27,0 24.22,1.01 36.35,1.01 10.59,0 21.21,-1.01 31.9,-1.01l1.14 0 0 1.15 0 8.88 -1.14 0 -3.85 0c-10.71,0.29 -21.73,1.24 -22.01,31.85l0 118.11c0,9.06 0.24,18.06 1.56,26.06l0.14 1.26 -1.25 0 0 0zm-9.85 -2.28l0 0 8.52 0c-1.13,-7.79 -1.38,-16.43 -1.38,-25.04l0 -118.11c0.02,-31.15 13.16,-34.02 24.27,-34.11l2.72 0 0 -5.5c-10.19,0.07 -20.46,1.02 -30.77,1.02 -11.92,0 -23.48,-0.95 -35.23,-1.02l0 5.5 4.61 0c7.98,0.09 23.71,3.57 23.71,25.55l-0.35 98.11 -0.51 0.54 -0.79 0.82 -115.5 -130.52c-7.7,0 -15.22,1.02 -23.06,1.02 -9.61,0 -19.32,-0.95 -28.75,-1.02l0 5.5 2.29 0c12.18,0.09 24.69,9.27 24.69,24.48l0 109.26c0,20.82 -5.86,34.09 -24.46,34.16l-2.52 -0.02 0 5.5c11.2,-0.06 22.76,-1 34.16,-1 10.9,0 21.66,0.94 32.39,1l0 -5.48 -3.27 0c-20.44,-0.02 -25.55,-8.96 -25.59,-31.54l0 -109.81 134.82 150.71 0 0zm-5.2 -53.9l0 0 0.81 -0.73 -0.81 0.73zm-0.64 -0.47l0 0 0 -0.11 -0.2 -0.19 0.2 0.3z"/>
   <path class="fil2" d="M2334.76 723.19c-2.62,8.79 -5.75,15.59 -5.75,20.21 0,7.83 10.92,9.09 19.46,9.09l2.88 0 0 7.82c-10.39,-0.56 -21,-1.03 -31.44,-1.03 -9.35,0 -18.64,0.47 -27.99,1.03l0 -7.82 1.56 0c10.12,0 18.71,-5.97 22.54,-16.89l41.56 -119.09c3.35,-9.61 8.07,-22.6 9.63,-32.22 8.26,-2.82 18.67,-8 23.57,-11.13 0.81,-0.26 1.26,-0.54 2.08,-0.54 0.77,0 1.26,0 1.84,0.8 0.77,2.05 1.52,4.41 2.35,6.48l47.74 135.77c3.11,9.06 6.19,18.65 9.55,26.46 3.13,7.28 8.61,10.36 17.19,10.36l1.52 0 0 7.82c-11.67,-0.56 -23.36,-1.03 -35.79,-1.03 -12.72,0 -25.72,0.47 -38.95,1.03l0 -7.82 2.88 0c5.94,0 16.09,-1.02 16.09,-7.51 0,-3.38 -2.35,-10.38 -5.24,-18.71l-10.09 -30.1 -58.91 0 -8.28 27.02 0 0zm37.87 -115l0 0 -0.52 0 -24.13 73.45 48.49 0 -23.84 -73.45z"/>
   <path class="fil2" d="M2472.98 761.41c-11.67,-0.52 -23.35,-1.07 -35.72,-1.07 -12.72,0 -25.64,0.55 -38.92,1.07l-1.17 0.07 0 -1.17 0 -8.98 1.14 0 2.85 0c6.02,0 14.94,-1.36 14.94,-6.35 0.07,-2.96 -2.27,-10.08 -5.12,-18.34l-9.89 -29.35 -57.24 0 -8.05 26.22c-2.65,8.85 -5.74,15.71 -5.73,19.93 0.09,6.35 9.79,7.89 18.38,7.89l4.01 0 0 1.17 0 8.98 -1.18 -0.07c-10.37,-0.52 -20.98,-1.07 -31.32,-1.07 -9.31,0 -18.66,0.55 -27.97,1.07l-1.2 0.07 0 -1.17 0 -8.98 1.13 0 1.54 0c9.66,-0.03 17.73,-5.53 21.48,-16.08l41.54 -119.11c3.41,-9.64 8.09,-22.58 10.34,-32.92 8.12,-2.75 18.55,-7.98 23.56,-11.15 0.72,-0.22 1.43,-0.59 2.5,-0.59 0.63,-0.02 2.03,0.16 2.85,1.52 0.74,2.14 1.54,4.45 2.35,6.55l47.79 135.75c3.06,9.1 6.16,18.69 9.54,26.35 3.01,6.93 7.77,9.65 16.12,9.68l2.64 0 0 1.17 0 8.98 -1.19 -0.07 0 0zm-73.54 -2.33l0 0c12.85,-0.45 25.43,-0.94 37.82,-0.94 12.06,0 23.35,0.49 34.62,0.94l0 -5.42 -0.35 0c-8.89,0.05 -15.04,-3.43 -18.22,-11.08 -3.38,-7.87 -6.55,-17.5 -9.59,-26.6l-47.78 -135.72c-0.78,-2.06 -1.54,-4.42 -2.22,-6.26 -0.23,-0.25 -0.17,-0.25 -0.38,-0.25l-0.48 0c-0.54,0 -0.84,0.16 -1.5,0.34 -5.01,3.27 -15.42,8.36 -23.12,10.39 -1.59,9.82 -6.25,22.79 -9.64,32.39l-41.53 119.13c-3.95,11.25 -13.04,17.69 -23.61,17.66l-0.4 0 0 5.42c8.87,-0.45 17.89,-0.94 26.9,-0.94 10.01,0 20.28,0.49 30.17,0.94l0 -5.42 -1.68 0c-8.44,-0.11 -20.23,-1.05 -20.56,-10.22 0.01,-5.18 3.2,-11.81 5.74,-20.58l1.13 0.35 -1.13 -0.39 8.55 -27.75 60.5 0 10.41 30.85c2.93,8.33 5.27,15.24 5.27,19.06 -0.35,7.96 -11.3,8.52 -17.2,8.68l-1.73 0.02 0 5.4 0.01 0zm-53.06 -76.32l0 0 24.85 -75.7 0.88 0 0.54 0 0 1.13 -0.3 0.06 0.3 -0.06 0 -1.13 0.77 0 24.62 75.7 -51.66 0zm3.12 -2.25l0 0 45.41 0 -22.57 -69.55 -22.84 69.55zm22.01 -71.98l0 0 0.6 -0.21 -0.6 0.21z"/>
   <path class="fil2" d="M2484.46 592.09c-19.46,0 -20.23,4.68 -24.15,23.61l-7.79 0c1.03,-7.26 2.35,-14.51 3.15,-22.07 1.05,-7.26 1.52,-14.5 1.52,-22.03l6.25 0c2.08,7.81 8.59,7.53 15.56,7.53l133.93 0c6.96,0 13.44,-0.25 13.98,-8.05l6.21 1.03c-1,7.02 -2.01,14.02 -2.82,21.03 -0.54,7 -0.54,14.02 -0.54,21l-7.79 2.91c-0.47,-9.59 -1.76,-24.96 -19.18,-24.96l-42.56 0 0 138.1c0,20 9.12,22.3 21.53,22.3l4.93 0 0 7.82c-10.11,0 -28.24,-1.03 -42.29,-1.03 -15.54,0 -33.74,1.03 -43.84,1.03l0 -7.82 4.9 0c14.31,0 21.58,-1.28 21.58,-21.77l0 -138.63 -42.58 0 0 0z"/>
   <path class="fil2" d="M2586.69 761.41c-10.18,0 -28.35,-1.05 -42.28,-1.05 -15.52,0 -33.68,1.05 -43.85,1.05l-1.16 0 0 -1.1 0 -8.94 1.16 0 4.9 0c14.31,-0.35 20.05,-0.53 20.4,-20.65l-0.03 -137.51 -41.37 0 0 -1.12 0 -1.15 43.66 0 0 139.78c0,20.82 -8.4,22.87 -22.66,22.92l-3.82 0 0 5.55c10.28,-0.11 27.71,-1.05 42.77,-1.05 13.55,0 30.89,0.94 41.15,1.05l0 -5.55 -3.84 0c-12.47,-0.05 -22.57,-3.04 -22.61,-23.45l0 -139.25 43.68 0c17.43,0.07 19.71,14.87 20.2,24.5l5.67 -2.07c0,-6.77 0.02,-13.54 0.52,-20.35 0.72,-6.67 1.68,-13.33 2.65,-19.95l-3.92 -0.66c-1.19,7.54 -8.53,7.96 -14.98,7.85l-133.93 0 -1.31 0c-6.13,0.07 -12.74,-0.29 -15.11,-7.57l-4.25 0c-0.07,7.19 -0.56,14.17 -1.57,21.08 -0.69,7.14 -1.96,14.02 -2.94,20.85l5.56 0c3.43,-18.1 5.69,-23.96 25.08,-23.68l0 1.15 0 1.12c-19.23,0.34 -18.8,3.59 -23.05,22.77l-0.19 0.89 -0.91 0 -9.1 0 0.16 -1.31c1.08,-7.31 2.38,-14.56 3.13,-22.05 1.07,-7.26 1.57,-14.45 1.57,-21.91l0 -1.12 1.11 0 7.08 0 0.23 0.81c1.82,6.54 6.55,6.58 13.18,6.68l1.31 0.04 133.95 0c7.15,-0.14 12.39,-0.25 12.84,-7.02l0.07 -1.23 1.23 0.25 7.36 1.15 -0.19 1.14c-1.07,6.95 -2.06,13.97 -2.85,20.91 -0.53,6.92 -0.53,13.95 -0.53,20.93l0 0.83 -0.73 0.28 -9.19 3.34 -0.05 -1.51c-0.67,-9.74 -1.7,-23.87 -18.1,-23.87l-41.44 0 0 136.98c0.28,19.57 8.04,20.91 20.37,21.18l6.09 0 0 1.12 0 8.92 -1.12 0 0 0z"/>
   <path class="fil2" d="M2642.71 752.49l3.62 0c9.38,0 19.18,-1.26 19.18,-14.79l0 -135.96c0,-13.55 -9.8,-14.81 -19.18,-14.81l-3.62 0 0 -7.8c10.13,0 25.67,1.03 38.36,1.03 13.02,0 28.6,-1.03 40.79,-1.03l0 7.8 -3.64 0c-9.32,0 -19.23,1.28 -19.23,14.81l0 135.96c0,13.53 9.91,14.79 19.23,14.79l3.64 0 0 7.82c-12.47,0 -28.05,-1.03 -40.98,-1.03 -12.74,0 -28.04,1.03 -38.17,1.03l0 -7.82z"/>
   <path class="fil2" d="M2721.86 761.41c-12.53,0 -28.07,-1.07 -41,-1.07 -12.69,0 -28.02,1.07 -38.15,1.07l-1.14 0 0 -1.1 0 -7.82 0 -1.12 1.14 0 3.64 0c9.38,-0.14 17.97,-0.97 18.01,-13.67l0 -135.96c-0.04,-12.67 -8.65,-13.55 -18.01,-13.72l-4.78 0 0 -1.09 0 -8.91 1.14 0c10.13,0 25.73,0.98 38.36,0.98 12.95,0 28.51,-0.98 40.79,-0.98l1.11 0 0 1.11 0 8.89 -1.11 0 -3.62 0c-9.48,0.19 -18.01,1.05 -18.13,13.72l0 135.96c0.12,12.7 8.65,13.53 18.13,13.67l4.73 0 0 1.12 0 8.92 -1.11 0 0 0zm-1.15 -2.27l0 0 0 -5.5 -2.47 0c-9.31,0 -20.32,-1.63 -20.32,-15.94l0 -135.96c0,-14.35 11.01,-15.96 20.32,-15.96l2.47 0 0 -5.52c-11.99,0.07 -26.99,1.02 -39.64,1.02 -12.28,0 -27.16,-0.95 -37.22,-1.02l0 5.52 2.5 0c9.22,0 20.28,1.61 20.32,15.96l0 135.96c-0.04,14.31 -11.1,15.94 -20.32,15.94l-2.5 0 0 5.5c10.01,-0.11 24.69,-1 37.01,-1 12.58,0 27.62,0.94 39.85,1l0 0z"/>
   <path class="fil2" d="M2825.36 575.24c55.3,0 99.4,34.3 99.4,89.57 0,59.71 -42.82,99.38 -98.05,99.38 -55.08,0 -97.08,-37.38 -97.08,-93.17 0,-53.97 41.76,-95.78 95.73,-95.78l0 0zm3.92 177.53l0 0c50.35,0 59.11,-44.42 59.11,-82.26 0,-37.94 -20.44,-83.86 -63.54,-83.86 -45.43,0 -58.9,40.5 -58.9,75.24 0,46.46 21.28,90.88 63.33,90.88l0 0z"/>
   <path class="fil2" d="M2728.48 671.02c0.1,-54.6 42.35,-96.85 96.86,-96.92l0 1.14 0 1.1c-53.34,0 -94.62,41.27 -94.67,94.66 0.12,55.18 41.54,92 96.02,92.02 54.7,-0.02 96.91,-39.15 96.98,-98.26 -0.05,-54.57 -43.47,-88.35 -98.33,-88.42l0 -1.1 0 -1.14c55.76,0.04 100.43,34.69 100.54,90.66 -0.05,60.32 -43.42,100.43 -99.19,100.54 -55.49,-0.13 -98.11,-37.87 -98.21,-94.3l0 0 0 0.02zm36.35 -9.13l0 0c0.07,-34.92 13.72,-76.41 60.02,-76.41 44.05,0.1 64.63,46.9 64.7,85.03 -0.07,37.84 -8.98,83.34 -60.27,83.34l0 -1.08 0 -1.12c49.35,-0.07 57.89,-43.3 58.01,-81.14 0,-37.62 -20.26,-82.67 -62.44,-82.72 -44.52,0.05 -57.7,39.53 -57.77,74.1 0.04,46.23 21.11,89.65 62.2,89.76l0 1.12 0 1.08c-43.07,-0.05 -64.38,-45.22 -64.45,-91.96l0 0z"/>
   <path class="fil2" d="M3099.64 709.14l0.5 -0.49 0 -97.32c0,-21.32 -14.82,-24.42 -22.61,-24.42l-5.61 0.02 0 -7.8c12.16,0 24.09,1.03 36.26,1.03 10.67,0 21.29,-1.03 31.95,-1.03l0 7.8 -3.92 0c-10.87,0 -23.08,2.07 -23.08,32.94l0 118.13c0,9.06 0.24,18.13 1.56,26.18l-9.84 0 -133.66 -148.99 0 106.95c0,22.58 4.39,30.35 24.36,30.35l4.44 0 0 7.82c-11.18,0 -22.31,-1.03 -33.48,-1.03 -11.67,0 -23.64,1.03 -35.31,1.03l0 -7.82 3.66 0c17.93,0 23.31,-12.18 23.31,-32.92l0 -109.33c0,-14.52 -11.89,-23.31 -23.59,-23.31l-3.38 0 0 -7.8c9.85,0 19.98,1.03 29.84,1.03 7.78,0 15.29,-1.03 23.1,-1.03l115.5 130.01 0 0z"/>
   <path class="fil2" d="M3114.7 765.3l-10.72 -0.39 -131.67 -146.79 0 104.02c0.28,22.56 3.71,28.95 23.2,29.19l5.62 0 0 1.17 0 8.91 -1.14 0c-11.25,0 -22.38,-1.05 -33.48,-1.05 -11.63,0 -23.55,1.05 -35.33,1.05l-1.08 0 0 -1.12 0 -8.96 1.08 0 3.68 0c17.11,-0.05 22.01,-11.06 22.22,-31.76l0 -109.33c-0.03,-13.81 -11.34,-22.21 -22.5,-22.22l-4.48 0 0 -1.09 0 -8.91 1.08 0c9.94,0 20.06,0.98 29.86,0.98 7.7,0 15.19,-0.98 23.95,-0.61l114.03 128.4 0 -95.45c-0.08,-20.65 -13.89,-23.13 -21.49,-23.32l-6.82 0 0 -1.09 0 -8.91 1.17 0c12.22,0 24.19,0.98 36.26,0.98 10.64,0 21.23,-0.98 31.99,-0.98l1.12 0 0 1.11 0 8.89 -1.12 0 -3.92 0c-10.67,0.31 -21.72,1.27 -21.94,31.85l0 118.11c0,9.06 0.21,18.11 1.47,26.06l0.21 1.26 -1.25 0 0 0zm-9.85 -2.28l0 0 8.49 0c-1.12,-7.79 -1.33,-16.43 -1.33,-25.04l0 -118.11c0,-31.21 13.09,-34.02 24.2,-34.11l2.82 0 0 -5.5c-10.24,0.07 -20.49,1.02 -30.89,1.02 -11.79,0 -23.41,-0.95 -35.16,-1.02l0 5.5 4.55 0c8.05,0.09 23.7,3.62 23.7,25.58l-0.28 98.08 -0.49 0.54 -0.82 0.82 -115.49 -130.52c-7.66,0 -15.22,1.02 -23.11,1.02 -9.56,0 -19.29,-0.95 -28.74,-1.02l0 5.5 2.29 0c12.18,0.09 24.71,9.27 24.71,24.48l0 109.33c0,20.75 -5.79,34.02 -24.44,34.11l-2.56 -0.04 0 5.5c11.27,-0.06 22.82,-0.98 34.23,-0.98 10.82,0 21.56,0.92 32.34,0.98l0 -5.46 -3.36 0c-20.37,-0.04 -25.46,-8.98 -25.46,-31.54l0 -109.87 134.8 150.75 0 0zm-5.21 -53.9l0 0 0.82 -0.73 -0.82 0.73zm-0.62 -0.47l0 0 0 -0.11 -0.22 -0.19 0.22 0.3z"/>
   <path class="fil2" d="M3181.83 723.19c-2.53,8.79 -5.68,15.59 -5.68,20.21 0,7.83 10.92,9.09 19.44,9.09l2.89 0 0 7.82c-10.38,-0.56 -21.04,-1.03 -31.42,-1.03 -9.38,0 -18.67,0.47 -27.98,1.03l0 -7.82 1.47 0c10.17,0 18.78,-5.97 22.61,-16.89l41.56 -119.09c3.35,-9.61 8.05,-22.6 9.56,-32.22 8.31,-2.82 18.69,-8 23.66,-11.13 0.73,-0.26 1.26,-0.54 2.06,-0.54 0.77,0 1.25,0 1.77,0.8 0.81,2.05 1.61,4.41 2.38,6.48l47.72 135.77c3.12,9.06 6.22,18.65 9.63,26.46 3.11,7.28 8.59,10.36 17.11,10.36l1.6 0 0 7.82c-11.71,-0.56 -23.38,-1.03 -35.86,-1.03 -12.69,0 -25.67,0.47 -38.92,1.03l0 -7.82 2.89 0c5.91,0 16.1,-1.02 16.1,-7.51 0,-3.38 -2.37,-10.38 -5.25,-18.71l-10.08 -30.1 -58.93 0 -8.33 27.02 0 0zm37.94 -115l0 0 -0.52 0 -24.17 73.45 48.56 0 -23.87 -73.45z"/>
   <path class="fil2" d="M3320.08 761.41c-11.67,-0.47 -23.32,-1.05 -35.73,-1.05 -12.65,0 -25.64,0.58 -38.89,1.05l-1.15 0.07 0 -1.19 0 -8.92 1.12 0 2.83 0c6.04,0 14.98,-1.4 15,-6.39 0.05,-2.96 -2.27,-10.03 -5.18,-18.34l-9.85 -29.35 -57.28 0 -8.03 26.22c-2.59,8.89 -5.69,15.71 -5.64,19.89 0,6.37 9.72,7.97 18.31,7.97l3.95 0 0 1.12 0 8.99 -1.15 -0.07c-10.38,-0.47 -21,-1.05 -31.33,-1.05 -9.31,0 -18.62,0.58 -27.98,1.05l-1.14 0.07 0 -1.19 0 -8.92 1.14 0 1.47 0c9.68,-0.04 17.78,-5.6 21.56,-16.12l41.53 -119.13c3.32,-9.62 8,-22.56 10.31,-32.86 8.13,-2.84 18.56,-8.02 23.6,-11.19 0.69,-0.22 1.39,-0.54 2.44,-0.54 0.7,-0.07 2.03,0.09 2.85,1.52 0.77,2.03 1.52,4.4 2.4,6.5l47.72 135.73c3.1,9.12 6.21,18.71 9.57,26.43 3.03,6.87 7.77,9.59 16.05,9.66l2.69 0 0 1.12 0 8.99 -1.19 -0.07 0 0zm-73.53 -2.29l0 0c12.83,-0.49 25.46,-1 37.8,-1 12.07,0 23.4,0.51 34.7,0.96l-0.03 -5.42 -0.44 0c-8.79,0.02 -14.91,-3.43 -18.13,-11.08 -3.43,-7.87 -6.53,-17.52 -9.63,-26.56l-47.75 -135.76c-0.77,-2.06 -1.56,-4.42 -2.19,-6.19 -0.23,-0.32 -0.19,-0.32 -0.4,-0.32l-0.49 0c-0.53,0 -0.83,0.18 -1.46,0.35 -5.05,3.19 -15.45,8.37 -23.13,10.38 -1.61,9.82 -6.32,22.75 -9.66,32.39l-41.56 119.13c-3.94,11.25 -13.01,17.68 -23.63,17.66l-0.38 0 0 5.42c8.94,-0.45 17.86,-0.96 26.89,-0.96 10.07,0 20.3,0.51 30.28,0.96l0 -5.42 -1.75 0c-8.44,-0.11 -20.28,-1.02 -20.6,-10.26 0.05,-5.14 3.27,-11.74 5.78,-20.54l1.06 0.33 -1.06 -0.37 8.55 -27.75 60.52 0 10.39 30.85c2.87,8.35 5.22,15.24 5.22,19.06 -0.37,7.96 -11.25,8.52 -17.2,8.68l-1.7 0 0 5.46 0 0zm-53.01 -76.37l0 0 24.89 -75.69 0.78 0 0.56 0 0 1.13 -0.28 0.06 0.28 -0.06 0 -1.13 0.81 0 24.53 75.69 -51.57 0zm3.1 -2.24l0 0 45.39 0 -22.57 -69.52 -22.82 69.52 0 0zm22.05 -71.98l0 0 0.52 -0.21 -0.52 0.21z"/>
   <path class="fil2" d="M3385.59 734.86c0,10.38 7.19,13.48 15.52,14.55 10.62,0.78 22.31,0.78 34.3,-0.53 10.87,-1.31 20.21,-7.54 24.85,-14.02 4.15,-5.72 6.49,-13 8.05,-18.69l7.52 -0.01c-2.83,14.8 -6.47,29.38 -9.6,44.15 -22.79,0 -45.68,-1.03 -68.48,-1.03 -22.87,0 -45.66,1.03 -68.5,1.03l0 -7.84 3.56 0c9.39,0 19.54,-1.24 19.54,-17.36l0 -133.37c0,-13.55 -10.15,-14.81 -19.54,-14.81l-3.56 0 0 -7.8c13.71,0 27.22,1.03 40.95,1.03 13.29,0 26.24,-1.03 39.48,-1.03l0 7.8 -6.52 0c-9.84,0 -17.57,0.28 -17.57,14l0 133.93 0 0z"/>
   <path class="fil2" d="M3466.23 761.41c-22.88,0 -45.71,-1.05 -68.48,-1.05 -22.86,0 -45.68,1.05 -68.55,1.05l-1.1 0 0 -1.12 0 -8.92 1.1 0 3.61 0c9.41,-0.21 18.3,-0.86 18.41,-16.26l0 -133.43c-0.11,-12.61 -8.95,-13.47 -18.41,-13.66l-4.71 0 0 -1.09 0 -8.91 1.1 0c13.79,0 27.32,0.98 41.02,0.98 13.18,0 26.13,-0.98 39.46,-0.98l1.07 0 0 1.11 0 8.89 -1.07 0 -6.51 0c-10.06,0.29 -16.32,-0.18 -16.52,12.91l0 133.93c0.07,9.66 6.41,12.27 14.51,13.41 4.59,0.33 9.4,0.52 14.4,0.52 6.34,0 12.95,-0.31 19.64,-1.03 10.59,-1.24 19.69,-7.33 24.15,-13.53 4.01,-5.54 6.3,-12.67 7.86,-18.34l0.22 -0.85 0.86 0 8.91 0 -0.23 1.36c-2.94,14.84 -6.49,29.35 -9.64,44.12l-0.21 0.89 -0.89 0 0 0 0 0zm-0.95 -2.27l0 0c3.01,-14.07 6.42,-27.85 9.21,-41.88l-5.32 0c-1.63,5.65 -3.94,12.62 -8.02,18.29 -4.85,6.73 -14.45,13.05 -25.69,14.45 -6.81,0.7 -13.54,1.05 -19.91,1.05 -5.03,0 -9.89,-0.23 -14.6,-0.56 -8.43,-0.93 -16.62,-4.53 -16.59,-15.63l0 -133.95c0,-14.4 9.14,-15.13 18.81,-15.13l5.36 0 0 -5.52c-12.79,0.07 -25.39,1.04 -38.31,1.04 -13.44,0 -26.58,-0.97 -39.9,-1.04l0 5.52 2.49 0c9.27,0 20.61,1.61 20.61,15.9l0 133.43c0,16.8 -11.29,18.53 -20.61,18.53l-2.49 0 0 5.5c22.45,-0.02 44.89,-1 67.43,-1 22.56,0 45.08,0.98 67.53,1l0 0z"/>
   <path class="fil2" d="M3472.68 571.76c15.65,0 27.32,12.02 27.32,27.42 0,15.33 -11.67,27.25 -27.32,27.25 -15.64,0 -27.33,-11.92 -27.33,-27.25 0,-15.4 11.69,-27.42 27.33,-27.42zm0 49.58l0 0c12.22,0 21.62,-10.45 21.62,-22.16 0,-11.79 -9.26,-22.31 -21.62,-22.31 -12.28,0 -21.68,10.52 -21.68,22.31 0,11.71 9.4,22.16 21.68,22.16zm-13.59 -7.77l0 0 0 -1.35c3.36,-0.47 3.97,-0.35 3.97,-2.45l0 -20.21c0,-2.86 -0.32,-3.82 -3.85,-3.68l0 -1.38 13.98 0c4.81,0 9.22,2.27 9.22,7.24 0,4.06 -2.69,7.07 -6.45,8.25l4.48 6.26c2.1,2.84 4.46,5.51 6.03,6.44l0 0.88 -5.33 0c-2.56,0 -4.78,-5.38 -9.82,-12.6l-3.03 0 0 9.1c0,1.8 0.63,1.68 3.99,2.15l0 1.35 -13.19 0 0 0zm9.2 -14.39l0 0 3.22 0c3.54,0 5.18,-2.68 5.18,-6.98 0,-4.36 -2.55,-5.9 -5.35,-5.9l-3.05 0 0 12.88z"/>
  </g>
 </g>
</svg>
