<?xml version="1.0" encoding="UTF-8"?>
<!DOCTYPE svg PUBLIC "-//W3C//DTD SVG 1.1//EN" "http://www.w3.org/Graphics/SVG/1.1/DTD/svg11.dtd">
<!-- Creator: CorelDRAW 2018 (64 Bit) -->
<svg xmlns="http://www.w3.org/2000/svg" xml:space="preserve" width="2.5cm" height="0.59824cm" version="1.1" style="shape-rendering:geometricPrecision; text-rendering:geometricPrecision; image-rendering:optimizeQuality; fill-rule:evenodd; clip-rule:evenodd"
viewBox="0 0 250 59.824"
 xmlns:xlink="http://www.w3.org/1999/xlink">
 <defs>
  <style type="text/css">
   <![CDATA[
    .fil0 {fill:white}
   ]]>
  </style>
 </defs>
 <g id="Camada_x0020_1">
  <metadata id="CorelCorpID_0Corel-Layer"/>
  <path class="fil0" d="M54.007 7.653c1.314,-0.906 3.003,-5.02 1.072,-6.734 -0.61,-0.542 -1.633,-0.699 -3.06,-0.457 -1.322,0.223 -2.084,0.673 -2.6,1.376 -0.831,1.132 -1.593,4.547 -0.306,5.815 1.253,1.234 4.061,0.574 4.894,0l0 0zm-18.665 -6.734c-0.939,6.099 -1.997,12.078 -3.059,18.055 -6.817,0.072 -13.775,0.336 -20.349,-0.153 1.241,-5.847 2.131,-12.045 3.365,-17.902l-7.343 0c-2.629,14.916 -5.021,30.068 -7.956,44.676l7.497 0c1.177,-7.493 2.277,-15.063 3.825,-22.184 6.393,-0.158 14.054,-0.433 20.195,0.153 -1.266,7.404 -2.796,14.542 -3.978,22.031l7.499 0c2.409,-15.135 4.946,-30.14 7.956,-44.676l-7.652 0 0 0zm106.027 12.853c-5.832,-2.357 -10.418,1.625 -12.544,5.355 0.482,-1.659 0.68,-3.602 1.071,-5.355l-5.814 0c-1.422,11.023 -3.515,21.371 -5.507,31.823l6.578 0c0.922,-6.204 1.321,-14.566 3.366,-20.502 1.634,-4.741 5.913,-8.782 12.087,-6.578 0.087,-1.75 0.587,-3.084 0.763,-4.743l0 0zm3.672 24.326c-0.607,-1.566 -0.762,-4.153 -0.61,-6.12 0.34,-4.421 1.95,-9.803 4.437,-12.239 3.43,-3.363 10.202,-2.806 15.605,-0.918 0.167,-1.822 0.533,-3.445 0.766,-5.202 -8.86,-1.446 -17.267,-0.547 -21.725,4.131 -4.365,4.58 -7.225,15.104 -5.204,21.726 2.367,7.75 12.98,8.169 21.573,5.203 0.382,-1.558 0.582,-3.294 0.918,-4.897 -4.696,2.44 -13.672,3.706 -15.76,-1.684l0 0zm73.899 -24.173c-5.815,-2.909 -10.656,1.971 -12.546,4.896 0.538,-1.5 0.571,-3.511 1.071,-5.049l-5.814 0c-1.567,10.926 -3.457,21.531 -5.66,31.823l6.733 0c0.041,-4.218 0.869,-7.338 1.529,-11.475 1.406,-8.832 3.473,-18.517 13.77,-15.605 0.341,-1.495 0.482,-3.188 0.917,-4.59zm-171.664 -0.153c-0.178,0.026 -0.166,0.241 -0.153,0.459 -1.449,10.841 -3.411,21.171 -5.507,31.364l6.579 0c1.579,-10.915 3.39,-21.598 5.659,-31.823l-6.578 0 0 0zm57.834 -0.613c-4.754,0.367 -8.772,1.735 -11.629,4.744 -3.502,3.69 -6.339,11.848 -5.507,19.279 1.187,10.6 14.383,10.218 24.939,7.65 0.18,-1.862 0.629,-3.453 0.917,-5.203 -4.347,1.627 -11.898,3.899 -16.371,1.072 -3.377,-2.136 -3.396,-7.542 -2.295,-12.24 7.095,-0.227 14.468,-0.184 21.572,0 0.452,-3.332 1.741,-6.962 0.612,-10.252 -1.487,-4.343 -6.816,-5.467 -12.238,-5.05zm6.272 11.628l-15.454 0c0.489,-3.553 3.687,-7.457 8.721,-7.65 4.74,-0.181 8.134,1.741 6.733,7.65l0 0zm-31.211 -11.015c-5.569,-2.092 -12.355,0.406 -15.297,2.779 0.011,0.106 -0.07,0.119 -0.155,0.127 0.049,-0.042 0.104,-0.083 0.155,-0.127 0,-0.007 0,-0.017 -0.002,-0.024 0.049,-1.022 0.408,-1.733 0.459,-2.755l-5.662 0c-2.358,15.694 -5.157,30.95 -8.109,46.053l6.578 0c0.953,-5.883 1.582,-12.087 2.909,-17.596 1.502,5.794 11.312,4.687 15.452,2.45 8.542,-4.621 15.13,-26.604 3.672,-30.907l0 0zm-5.202 25.857c-3.519,3.727 -12.172,3.672 -12.853,-2.602 -0.294,-2.729 0.722,-5.59 1.227,-8.413 0.506,-2.859 0.873,-5.601 1.376,-8.109 3.465,-4.235 13.653,-4.745 14.687,2.294 0.897,6.111 -1.521,13.742 -4.437,16.83l0 0zm168.451 -39.626c-0.565,4.943 -1.319,9.698 -2.296,14.228 -16.137,-5.108 -26.034,6.765 -25.856,21.42 0.036,2.835 0.524,5.645 2.294,7.65 3.056,3.454 11.802,4.282 16.22,1.376 0.854,-0.562 1.727,-1.584 2.294,-2.295 0.425,-0.532 1.102,-1.933 1.225,-1.53 -0.235,1.553 -0.58,2.991 -0.612,4.743l5.967 0c1.151,-16.496 4.706,-30.586 7.344,-45.594l-6.58 0 0 0.002 0 0zm-14.687 42.073c-4.43,0.095 -6.632,-2.645 -6.734,-7.19 -0.175,-7.96 3.315,-16.802 10.405,-17.596 3.3,-0.368 5.691,0.399 8.109,1.225 -2.22,8.94 -1.419,23.338 -11.78,23.561l0 0zm-56.763 -28.304c-0.323,1.818 -0.822,3.464 -1.225,5.202 3.882,-0.975 15.971,-3.959 17.137,1.223 0.387,1.721 -0.28,3.551 -0.766,4.896 -10.93,-1.035 -19.84,0.781 -22.185,8.568 -1.569,5.216 0.177,10.349 3.52,11.781 6.439,2.759 14.272,-0.401 16.982,-4.741 -0.282,1.502 -0.548,3.021 -0.458,4.894l5.66 0c0.061,-5.422 0.85,-9.81 1.684,-14.687 0.71,-4.156 2.046,-8.268 1.837,-11.934 -0.488,-8.398 -14.4,-5.427 -22.186,-5.202l0 0zm10.709 25.704c-3.39,3.318 -12.907,4.261 -11.934,-3.672 0.809,-6.589 7.985,-7.99 15.759,-7.039 -0.578,3.606 -1.241,8.181 -3.825,10.711l0 0z"/>
 </g>
</svg>
