<?xml version="1.0" encoding="UTF-8"?>
<!DOCTYPE svg PUBLIC "-//W3C//DTD SVG 1.1//EN" "http://www.w3.org/Graphics/SVG/1.1/DTD/svg11.dtd">
<!-- Creator: CorelDRAW 2018 (64 Bit) -->
<svg xmlns="http://www.w3.org/2000/svg" xml:space="preserve" width="2cm" height="1.2cm" version="1.1" style="shape-rendering:geometricPrecision; text-rendering:geometricPrecision; image-rendering:optimizeQuality; fill-rule:evenodd; clip-rule:evenodd"
viewBox="0 0 2000 1200"
 xmlns:xlink="http://www.w3.org/1999/xlink">
 <defs>
  <style type="text/css">
   <![CDATA[
    .fil0 {fill:#0A469C}
    .fil1 {fill:white}
   ]]>
  </style>
 </defs>
 <g id="Camada_x0020_1">
  <metadata id="CorelCorpID_0Corel-Layer"/>
  <g id="Rounded">
   <g id="Large">
    <g id="large_x002f_jcb">
     <path class="fil0" d="M80 0l1840 0c44.18,0 80,35.83 80,80l0 1040c0,44.17 -35.82,80 -80,80l-1840 0c-44.17,0 -80,-35.83 -80,-80.01l0 -1039.99c0,-44.17 35.83,-80 80,-80z"/>
     <g id="Logo">
      <g id="jcb">
       <path id="Shape" class="fil1" d="M1312.97 692.33l83.6 0c2.39,0 7.96,-0.8 10.35,-0.8 15.92,-3.2 29.45,-17.61 29.45,-37.63 0,-19.21 -13.53,-33.62 -29.45,-37.63 -2.39,-0.8 -7.17,-0.8 -10.35,-0.8l-83.6 0 0 76.86z"/>
       <path id="Shape_0" class="fil1" d="M1387.01 161.54c-79.61,0 -144.89,64.85 -144.89,145.71l0 151.31 204.6 0c4.78,0 10.35,0 14.33,0.8 46.18,2.4 80.41,26.42 80.41,68.05 0,32.82 -23.09,60.84 -66.08,66.45l0 1.6c46.97,3.2 82.8,29.62 82.8,70.45 0,44.03 -39.81,72.86 -92.35,72.86l-224.51 0 0 296.21 212.57 0c79.61,0 144.89,-64.84 144.89,-145.7l0 -727.74 -211.77 0 0 0z"/>
       <path id="Shape_1" class="fil1" d="M1426.02 537.01c0,-19.21 -13.53,-32.02 -29.45,-34.42 -1.6,0 -5.58,-0.8 -7.97,-0.8l-75.63 0 0 70.45 75.63 0c2.39,0 7.17,0 7.97,-0.8 15.92,-2.4 29.45,-15.21 29.45,-34.43l0 0z"/>
       <path id="Shape_2" class="fil1" d="M586.11 161.54c-79.61,0 -144.89,64.85 -144.89,145.71l0 359.46c40.6,20.02 82.8,32.83 124.99,32.83 50.16,0 77.23,-30.43 77.23,-72.06l0 -169.72 124.19 0 0 168.92c0,65.65 -40.6,119.29 -178.33,119.29 -83.59,0 -148.88,-18.41 -148.88,-18.41l0 306.62 212.57 0c79.61,0 144.89,-64.84 144.89,-145.7l0 -726.94 -211.77 0 0 0z"/>
       <path id="Shape_3" class="fil1" d="M986.56 161.54c-79.61,0 -144.89,64.85 -144.89,145.71l0 190.54c36.62,-31.23 100.31,-51.24 203.01,-46.44 54.93,2.4 113.84,17.62 113.84,17.62l0 61.64c-29.45,-15.21 -64.48,-28.82 -109.86,-32.02 -78.02,-5.61 -124.99,32.82 -124.99,100.07 0,68.05 46.97,106.48 124.99,100.08 45.38,-3.21 80.41,-17.62 109.86,-32.03l0 61.65c0,0 -58.11,15.21 -113.84,17.61 -102.7,4.8 -166.39,-15.21 -203.01,-46.43l0 336.24 212.56 0c79.61,0 144.9,-64.84 144.9,-145.71l0 -728.53 -212.57 0 0 0z"/>
      </g>
     </g>
    </g>
   </g>
  </g>
 </g>
</svg>
