<?xml version="1.0" encoding="UTF-8"?>
<!DOCTYPE svg PUBLIC "-//W3C//DTD SVG 1.1//EN" "http://www.w3.org/Graphics/SVG/1.1/DTD/svg11.dtd">
<!-- Creator: CorelDRAW 2018 (64 Bit) -->
<svg xmlns="http://www.w3.org/2000/svg" xml:space="preserve" width="1.7cm" height="1.02cm" version="1.1" style="shape-rendering:geometricPrecision; text-rendering:geometricPrecision; image-rendering:optimizeQuality; fill-rule:evenodd; clip-rule:evenodd"
viewBox="0 0 1700 1020"
 xmlns:xlink="http://www.w3.org/1999/xlink">
 <defs>
  <style type="text/css">
   <![CDATA[
    .fil0 {fill:#0A469C}
    .fil1 {fill:white}
   ]]>
  </style>
 </defs>
 <g id="Camada_x0020_1">
  <metadata id="CorelCorpID_0Corel-Layer"/>
  <g id="Rounded">
   <g id="Large">
    <g id="large2Fjcb">
     <path class="fil0" d="M68 0l1564 0c37.55,0 68,30.46 68,68l0 884c0,37.54 -30.45,68 -68,68l-1564 0c-37.54,0 -68,-30.46 -68,-68.01l0 -883.99c0,-37.54 30.46,-68 68,-68z"/>
     <g id="Logo">
      <g id="jcb">
       <path id="Shape" class="fil1" d="M1116.02 588.48l71.06 0c2.04,0 6.77,-0.68 8.8,-0.68 13.53,-2.72 25.03,-14.97 25.03,-31.98 0,-16.33 -11.5,-28.58 -25.03,-31.99 -2.03,-0.68 -6.09,-0.68 -8.8,-0.68l-71.06 0 0 65.33z"/>
       <path id="Shape_0" class="fil1" d="M1178.96 137.31c-67.67,0 -123.16,55.12 -123.16,123.85l0 128.62 173.91 0c4.07,0 8.8,0 12.18,0.68 39.26,2.04 68.35,22.45 68.35,57.84 0,27.9 -19.63,51.71 -56.17,56.48l0 1.36c39.93,2.72 70.38,25.18 70.38,59.88 0,37.43 -33.84,61.93 -78.49,61.93l-190.84 0 0 251.78 180.69 0c67.67,0 123.15,-55.11 123.15,-123.84l0 -618.58 -180 0 0 0z"/>
       <path id="Shape_1" class="fil1" d="M1212.12 456.46c0,-16.33 -11.5,-27.22 -25.04,-29.26 -1.36,0 -4.74,-0.68 -6.77,-0.68l-64.29 0 0 59.88 64.29 0c2.03,0 6.09,0 6.77,-0.68 13.54,-2.04 25.04,-12.92 25.04,-29.26l0 0z"/>
       <path id="Shape_2" class="fil1" d="M498.19 137.31c-67.67,0 -123.15,55.12 -123.15,123.85l0 305.54c34.51,17.02 70.38,27.91 106.24,27.91 42.63,0 65.64,-25.87 65.64,-61.25l0 -144.26 105.57 0 0 143.58c0,55.8 -34.51,101.39 -151.59,101.39 -71.05,0 -126.54,-15.64 -126.54,-15.64l0 260.62 180.68 0c67.67,0 123.16,-55.11 123.16,-123.84l0 -617.9 -180.01 0 0 0z"/>
       <path id="Shape_3" class="fil1" d="M838.58 137.31c-67.67,0 -123.16,55.12 -123.16,123.85l0 161.96c31.13,-26.54 85.26,-43.55 172.56,-39.47 46.69,2.04 96.76,14.97 96.76,14.97l0 52.4c-25.03,-12.93 -54.81,-24.5 -93.38,-27.22 -66.32,-4.77 -106.24,27.9 -106.24,85.06 0,57.84 39.92,90.51 106.24,85.07 38.57,-2.73 68.35,-14.98 93.38,-27.23l0 52.41c0,0 -49.39,12.92 -96.76,14.96 -87.3,4.08 -141.43,-12.92 -172.56,-39.46l0 285.8 180.68 0c67.66,0 123.16,-55.11 123.16,-123.85l0 -619.25 -180.68 0 0 0z"/>
      </g>
     </g>
    </g>
   </g>
  </g>
 </g>
</svg>
