<?xml version="1.0" encoding="UTF-8"?>
<!DOCTYPE svg PUBLIC "-//W3C//DTD SVG 1.1//EN" "http://www.w3.org/Graphics/SVG/1.1/DTD/svg11.dtd">
<!-- Creator: CorelDRAW 2018 (64 Bit) -->
<svg xmlns="http://www.w3.org/2000/svg" xml:space="preserve" width="1.5cm" height="1.26001cm" version="1.1" style="shape-rendering:geometricPrecision; text-rendering:geometricPrecision; image-rendering:optimizeQuality; fill-rule:evenodd; clip-rule:evenodd"
viewBox="0 0 150 126.001"
 xmlns:xlink="http://www.w3.org/1999/xlink">
 <defs>
  <style type="text/css">
   <![CDATA[
    .fil1 {fill:#EB001B}
    .fil2 {fill:#F79E1B}
    .fil0 {fill:#FF5F00}
    .fil3 {fill:white}
   ]]>
  </style>
 </defs>
 <g id="Camada_x0020_1">
  <metadata id="CorelCorpID_0Corel-Layer"/>
  <g id="_2618423663616">
   <rect id="Rectangle-path" class="fil0" x="54.667" y="10.192" width="40.518" height="74.925"/>
   <path id="Shape" class="fil1" d="M57.24 47.656c0,-15.224 6.946,-28.726 17.622,-37.464 -7.847,-6.354 -17.751,-10.192 -28.556,-10.192 -25.596,0 -46.306,21.313 -46.306,47.656 0,26.343 20.71,47.655 46.306,47.655 10.805,0 20.709,-3.839 28.556,-10.193 -10.676,-8.604 -17.622,-22.24 -17.622,-37.462z"/>
   <path id="Shape_0" class="fil2" d="M149.852 47.656c0,26.343 -20.709,47.655 -46.306,47.655 -10.805,0 -20.709,-3.839 -28.556,-10.193 10.805,-8.736 17.622,-22.24 17.622,-37.462 0,-15.224 -6.945,-28.726 -17.622,-37.464 7.847,-6.354 17.751,-10.192 28.556,-10.192 25.597,0 46.306,21.445 46.306,47.656z"/>
   <path id="Shape_1" class="fil3" d="M21.858 125.736l0 -7.942c0,-3.043 -2,-5.028 -5.429,-5.028 -1.715,0 -3.571,0.529 -4.857,2.25 -1,-1.456 -2.429,-2.25 -4.572,-2.25 -1.428,0 -2.856,0.396 -3.999,1.852l0 -1.588 -3.001 0 0 12.706 3.001 0 0 -7.015c0,-2.25 1.285,-3.309 3.285,-3.309 2,0 3,1.191 3,3.309l0 7.015 3 0 0 -7.015c0,-2.25 1.428,-3.309 3.285,-3.309 2.001,0 3,1.191 3,3.309l0 7.015 3.287 0 0 0zm44.428 -12.706l-4.857 0 0 -3.838 -3 0 0 3.838 -2.715 0 0 2.515 2.715 0 0 5.823c0,2.912 1.285,4.633 4.714,4.633 1.286,0 2.714,-0.398 3.715,-0.927l-0.857 -2.382c-0.858,0.529 -1.858,0.662 -2.572,0.662 -1.429,0 -2,-0.794 -2,-2.118l0 -5.691 4.857 0 0 -2.515 0 0zm25.429 -0.264c-1.714,0 -2.857,0.794 -3.572,1.852l0 -1.588 -2.999 0 0 12.706 2.999 0 0 -7.147c0,-2.118 1.001,-3.309 2.858,-3.309 0.571,0 1.285,0.132 1.857,0.265l0.857 -2.647c-0.572,-0.132 -1.429,-0.132 -2,-0.132l0 0 0 0zm-38.429 1.323c-1.429,-0.927 -3.429,-1.323 -5.571,-1.323 -3.429,0 -5.715,1.588 -5.715,4.102 0,2.118 1.714,3.309 4.714,3.706l1.429 0.133c1.571,0.264 2.429,0.661 2.429,1.323 0,0.927 -1.143,1.588 -3.143,1.588 -2,0 -3.571,-0.661 -4.572,-1.323l-1.429 2.117c1.572,1.059 3.715,1.589 5.858,1.589 4,0 6.286,-1.721 6.286,-4.103 0,-2.25 -1.857,-3.441 -4.714,-3.839l-1.429 -0.132c-1.286,-0.133 -2.286,-0.397 -2.286,-1.191 0,-0.926 1,-1.456 2.572,-1.456 1.714,0 3.428,0.662 4.285,1.059l1.286 -2.25 0 0zm79.715 -1.323c-1.715,0 -2.857,0.794 -3.572,1.852l0 -1.588 -3 0 0 12.706 3 0 0 -7.147c0,-2.118 1.001,-3.309 2.857,-3.309 0.571,0 1.286,0.132 1.858,0.265l0.857 -2.647c-0.572,-0.132 -1.429,-0.132 -2,-0.132l0 0 0 0zm-38.286 6.617c0,3.838 2.857,6.618 7.286,6.618 1.999,0 3.428,-0.398 4.857,-1.456l-1.429 -2.25c-1.143,0.794 -2.285,1.191 -3.571,1.191 -2.429,0 -4.143,-1.588 -4.143,-4.103 0,-2.382 1.714,-3.971 4.143,-4.103 1.286,0 2.428,0.397 3.571,1.191l1.429 -2.25c-1.429,-1.059 -2.858,-1.455 -4.857,-1.455 -4.429,0 -7.286,2.779 -7.286,6.617l0 0 0 0zm27.714 0l0 -6.353 -3 0 0 1.588c-1,-1.191 -2.428,-1.852 -4.286,-1.852 -3.856,0 -6.856,2.779 -6.856,6.617 0,3.838 3,6.618 6.856,6.618 2,0 3.429,-0.662 4.286,-1.853l0 1.588 3 0 0 -6.353zm-11 0c0,-2.25 1.571,-4.103 4.143,-4.103 2.429,0 4.143,1.721 4.143,4.103 0,2.251 -1.714,4.103 -4.143,4.103 -2.572,-0.132 -4.143,-1.852 -4.143,-4.103l0 0zm-35.857 -6.617c-4,0 -6.858,2.646 -6.858,6.617 0,3.971 2.858,6.618 7.001,6.618 1.999,0 4,-0.53 5.571,-1.721l-1.428 -1.985c-1.143,0.794 -2.572,1.323 -4,1.323 -1.858,0 -3.715,-0.793 -4.143,-3.044l10.142 0 0 -1.059c0.144,-4.103 -2.428,-6.749 -6.285,-6.749l0 0 0 0zm0 2.381c1.857,0 3.143,1.059 3.429,3.044l-7.144 0c0.286,-1.72 1.572,-3.044 3.715,-3.044l0 0zm74.428 4.235l0 -11.382 -2.999 0 0 6.617c-1.001,-1.191 -2.429,-1.852 -4.286,-1.852 -3.857,0 -6.857,2.779 -6.857,6.617 0,3.839 3,6.618 6.857,6.618 2,0 3.429,-0.662 4.286,-1.853l0 1.588 2.999 0 0 -6.353zm-10.999 0c0,-2.25 1.571,-4.102 4.143,-4.102 2.428,0 4.143,1.72 4.143,4.102 0,2.251 -1.715,4.103 -4.143,4.103 -2.572,-0.132 -4.143,-1.852 -4.143,-4.103l0 0zm-100.286 0l0 -6.352 -3.001 0 0 1.587c-1,-1.191 -2.428,-1.852 -4.285,-1.852 -3.858,0 -6.858,2.779 -6.858,6.617 0,3.839 3,6.618 6.858,6.618 2,0 3.429,-0.662 4.285,-1.853l0 1.588 3.001 0 0 -6.353zm-11.144 0c0,-2.25 1.572,-4.102 4.143,-4.102 2.429,0 4.143,1.72 4.143,4.102 0,2.251 -1.714,4.103 -4.143,4.103 -2.571,-0.132 -4.143,-1.852 -4.143,-4.103z"/>
  </g>
 </g>
</svg>
