<?xml version="1.0" encoding="UTF-8"?>
<!DOCTYPE svg PUBLIC "-//W3C//DTD SVG 1.1//EN" "http://www.w3.org/Graphics/SVG/1.1/DTD/svg11.dtd">
<!-- Creator: CorelDRAW 2018 (64 Bit) -->
<svg xmlns="http://www.w3.org/2000/svg" xml:space="preserve" width="1.5cm" height="1.26cm" version="1.1" style="shape-rendering:geometricPrecision; text-rendering:geometricPrecision; image-rendering:optimizeQuality; fill-rule:evenodd; clip-rule:evenodd"
viewBox="0 0 152.027 127.703"
 xmlns:xlink="http://www.w3.org/1999/xlink">
 <defs>
  <style type="text/css">
   <![CDATA[
    .fil2 {fill:#0099DF}
    .fil0 {fill:#6C6BBD}
    .fil1 {fill:#D32011}
    .fil3 {fill:white}
   ]]>
  </style>
 </defs>
 <g id="Camada_x0020_1">
  <metadata id="CorelCorpID_0Corel-Layer"/>
  <g id="_2113102508960">
   <path id="Shape" class="fil0" d="M96.568 86.475l-41.108 0 0 -76.125 41.108 0 0 76.125z"/>
   <path id="Shape_0" class="fil1" d="M58.068 48.415c0,-15.443 7.018,-29.198 17.943,-38.064 -7.99,-6.482 -18.074,-10.351 -29.033,-10.351 -25.946,0 -46.978,21.675 -46.978,48.415 0,26.739 21.032,48.414 46.978,48.414 10.959,0 21.044,-3.869 29.033,-10.351 -10.926,-8.865 -17.943,-22.621 -17.943,-38.063z"/>
   <path id="Shape_1" class="fil2" d="M152.027 48.415c0,26.739 -21.032,48.414 -46.977,48.414 -10.96,0 -21.045,-3.869 -29.038,-10.351 10.931,-8.865 17.946,-22.621 17.946,-38.063 0,-15.443 -7.016,-29.198 -17.946,-38.064 7.994,-6.482 18.078,-10.351 29.038,-10.351 25.945,0 46.977,21.675 46.977,48.415z"/>
   <path id="Shape_2" class="fil3" d="M114.949 113.261c0.617,0 1.505,0.115 2.184,0.373l-0.946 2.8c-0.648,-0.257 -1.295,-0.344 -1.917,-0.344 -2.005,0 -3.007,1.257 -3.007,3.514l0 7.662 -3.068 0 0 -13.662 3.037 0 0 1.659c0.797,-1.201 1.947,-2.003 3.716,-2.003l0 0zm-11.332 3.059l-5.012 0 0 6.174c0,1.371 0.5,2.286 2.035,2.286 0.796,0 1.799,-0.258 2.71,-0.772l0.884 2.542c-0.972,0.659 -2.504,1.06 -3.83,1.06 -3.628,0 -4.893,-1.887 -4.893,-5.06l0 -6.23 -2.862 0 0 -2.715 2.862 0 0 -4.145 3.094 0 0 4.145 5.012 0 0 2.715 0 0zm-39.246 2.915c0.327,-1.972 1.563,-3.317 3.746,-3.317 1.974,0 3.243,1.201 3.568,3.317l-7.314 0zm10.499 1.201c-0.03,-4.259 -2.744,-7.175 -6.695,-7.175 -4.128,0 -7.017,2.916 -7.017,7.175 0,4.342 3.007,7.173 7.225,7.173 2.123,0 4.067,-0.514 5.778,-1.915l-1.505 -2.202c-1.178,0.916 -2.684,1.43 -4.098,1.43 -1.974,0 -3.772,-0.887 -4.215,-3.344l10.466 0c0.03,-0.373 0.061,-0.743 0.061,-1.142l0 0zm13.473 -3.344c-0.854,-0.517 -2.592,-1.175 -4.391,-1.175 -1.681,0 -2.683,0.602 -2.683,1.603 0,0.912 1.059,1.172 2.386,1.341l1.444 0.201c3.068,0.431 4.924,1.688 4.924,4.09 0,2.601 -2.358,4.458 -6.426,4.458 -2.302,0 -4.424,-0.572 -6.105,-1.773l1.445 -2.316c1.032,0.771 2.568,1.429 4.691,1.429 2.093,0 3.213,-0.599 3.213,-1.659 0,-0.768 -0.797,-1.2 -2.477,-1.426l-1.444 -0.2c-3.156,-0.432 -4.867,-1.802 -4.867,-4.031 0,-2.715 2.302,-4.374 5.869,-4.374 2.241,0 4.276,0.487 5.748,1.43l-1.327 2.401 0 0zm37.814 -1.007c-0.63,0 -1.214,0.107 -1.757,0.32 -0.54,0.216 -1.009,0.517 -1.404,0.903 -0.395,0.386 -0.706,0.85 -0.931,1.391 -0.227,0.54 -0.337,1.135 -0.337,1.784 0,0.651 0.11,1.243 0.337,1.783 0.225,0.54 0.536,1.004 0.931,1.391 0.394,0.386 0.864,0.687 1.404,0.903 0.543,0.216 1.127,0.32 1.757,0.32 0.631,0 1.219,-0.104 1.758,-0.32 0.543,-0.216 1.016,-0.517 1.412,-0.903 0.4,-0.386 0.711,-0.85 0.941,-1.391 0.227,-0.54 0.339,-1.132 0.339,-1.783 0,-0.649 -0.111,-1.244 -0.339,-1.784 -0.229,-0.54 -0.54,-1.004 -0.941,-1.391 -0.396,-0.386 -0.869,-0.687 -1.412,-0.903 -0.539,-0.213 -1.127,-0.32 -1.758,-0.32l0 0zm0 -2.824c1.094,0 2.106,0.183 3.037,0.552 0.932,0.367 1.738,0.875 2.417,1.518 0.681,0.645 1.211,1.408 1.596,2.284 0.384,0.88 0.577,1.835 0.577,2.866 0,1.031 -0.193,1.985 -0.577,2.865 -0.385,0.878 -0.915,1.643 -1.596,2.287 -0.679,0.645 -1.485,1.148 -2.417,1.518 -0.931,0.366 -1.944,0.549 -3.037,0.549 -1.094,0 -2.105,-0.183 -3.036,-0.549 -0.931,-0.37 -1.732,-0.874 -2.407,-1.518 -0.674,-0.645 -1.204,-1.41 -1.589,-2.287 -0.384,-0.88 -0.577,-1.834 -0.577,-2.865 0,-1.031 0.193,-1.986 0.577,-2.866 0.385,-0.877 0.915,-1.64 1.589,-2.284 0.675,-0.644 1.476,-1.151 2.407,-1.518 0.931,-0.369 1.943,-0.552 3.036,-0.552l0 0zm-79.7 7.175c0,-2.401 1.624,-4.374 4.276,-4.374 2.535,0 4.246,1.888 4.246,4.374 0,2.487 -1.711,4.371 -4.246,4.371 -2.652,0 -4.276,-1.969 -4.276,-4.371l0 0zm11.41 0l0 -6.831 -3.064 0 0 1.659c-0.975,-1.23 -2.447,-2.003 -4.451,-2.003 -3.952,0 -7.047,3 -7.047,7.175 0,4.172 3.095,7.175 7.047,7.175 2.005,0 3.476,-0.771 4.451,-2.002l0 1.658 3.064 0 0 -6.831zm-17.275 6.831l0 -8.574c0,-3.23 -2.122,-5.402 -5.541,-5.431 -1.799,-0.029 -3.659,0.514 -4.954,2.431 -0.973,-1.515 -2.507,-2.431 -4.661,-2.431 -1.502,0 -2.977,0.429 -4.128,2.028l0 -1.684 -3.064 0 0 13.662 3.095 0 0 -7.573c0,-2.373 1.356,-3.632 3.449,-3.632 2.034,0 3.068,1.286 3.068,3.602l0 7.603 3.094 0 0 -7.573c0,-2.373 1.417,-3.632 3.449,-3.632 2.096,0 3.098,1.286 3.098,3.602l0 7.603 3.094 0 0 0z"/>
  </g>
 </g>
</svg>
