<?xml version="1.0" encoding="UTF-8"?>
<!DOCTYPE svg PUBLIC "-//W3C//DTD SVG 1.1//EN" "http://www.w3.org/Graphics/SVG/1.1/DTD/svg11.dtd">
<!-- Creator: CorelDRAW 2018 (64 Bit) -->
<svg xmlns="http://www.w3.org/2000/svg" xml:space="preserve" width="21cm" height="29.7cm" version="1.1" style="shape-rendering:geometricPrecision; text-rendering:geometricPrecision; image-rendering:optimizeQuality; fill-rule:evenodd; clip-rule:evenodd"
viewBox="0 0 2100 2970"
 xmlns:xlink="http://www.w3.org/1999/xlink">
 <defs>
  <style type="text/css">
   <![CDATA[
    .fil0 {fill:#00579F}
    .fil1 {fill:#FAA61A}
   ]]>
  </style>
 </defs>
 <g id="Camada_x0020_1">
  <metadata id="CorelCorpID_0Corel-Layer"/>
  <g id="g4158">
   <path id="polygon9" class="fil0" d="M1040 1508.573l-12.151 0 7.6 -46.994 12.15 0 -7.599 46.994z"/>
   <path id="path11" class="fil0" d="M1084.048 1462.728c-2.396,-0.951 -6.198,-2.001 -10.898,-2.001 -12,0 -20.45,6.399 -20.501,15.547 -0.1,6.75 6.05,10.499 10.649,12.749 4.701,2.3 6.299,3.801 6.299,5.851 -0.048,3.148 -3.799,4.599 -7.297,4.599 -4.851,0 -7.451,-0.748 -11.401,-2.499l-1.6 -0.751 -1.7 10.549c2.85,1.298 8.1,2.45 13.551,2.501 12.75,0 21.051,-6.3 21.149,-16.049 0.049,-5.35 -3.199,-9.449 -10.199,-12.798 -4.25,-2.15 -6.853,-3.6 -6.853,-5.8 0.05,-2 2.201,-4.049 6.999,-4.049 3.95,-0.1 6.852,0.849 9.051,1.799l1.099 0.499 1.653 -10.147 0 0 -0.001 0z" inkscape:connector-curvature="0"/>
   <path id="path13" class="fil0" d="M1100.198 1491.924c1.001,-2.699 4.852,-13.148 4.852,-13.148 -0.051,0.1 0.998,-2.75 1.598,-4.499l0.849 4.049c0,0 2.302,11.249 2.801,13.598 -1.899,0 -7.7,0 -10.1,0l0 0 0 0zm14.999 -30.345l-9.399 0c-2.898,0 -5.1,0.849 -6.351,3.899l-18.048 43.094 12.749 0c0,0 2.099,-5.8 2.551,-7.049 1.398,0 13.801,0 15.6,0 0.349,1.649 1.45,7.049 1.45,7.049l11.251 0 -9.803 -46.993 0 0 0 0z" inkscape:connector-curvature="0"/>
   <path id="path15" class="fil0" d="M1017.7 1461.579l-11.9 32.045 -1.3 -6.499c-2.201,-7.499 -9.1,-15.647 -16.8,-19.698l10.9 41.096 12.849 0 19.1 -46.944 -12.849 0 0 0z" inkscape:connector-curvature="0"/>
   <path id="path17" class="fil1" d="M994.75 1461.579l-19.55 0 -0.2 0.949c15.25,3.9 25.35,13.3 29.5,24.599l-4.25 -21.598c-0.7,-3.001 -2.85,-3.851 -5.5,-3.95l0 0z" inkscape:connector-curvature="0"/>
  </g>
 </g>
</svg>
