<?xml version="1.0" encoding="UTF-8"?>
<!DOCTYPE svg PUBLIC "-//W3C//DTD SVG 1.1//EN" "http://www.w3.org/Graphics/SVG/1.1/DTD/svg11.dtd">
<!-- Creator: CorelDRAW 2018 (64 Bit) -->
<svg xmlns="http://www.w3.org/2000/svg" xml:space="preserve" width="1.72cm" height="1.04cm" version="1.1" style="shape-rendering:geometricPrecision; text-rendering:geometricPrecision; image-rendering:optimizeQuality; fill-rule:evenodd; clip-rule:evenodd"
viewBox="0 0 1720 1040"
 xmlns:xlink="http://www.w3.org/1999/xlink">
 <defs>
  <style type="text/css">
   <![CDATA[
    .str0 {stroke:black;stroke-width:20;stroke-miterlimit:22.9256}
    .fil1 {fill:#0E4595}
    .fil2 {fill:#F2AE14}
    .fil0 {fill:#FEFEFE}
   ]]>
  </style>
 </defs>
 <g id="Camada_x0020_1">
  <metadata id="CorelCorpID_0Corel-Layer"/>
  <path class="fil0 str0" d="M78 10l1564 0c37.55,0 68,30.46 68,68l0 884c0,37.54 -30.45,68 -68,68l-1564 0c-37.54,0 -68,-30.46 -68,-68.01l0 -883.99c0,-37.54 30.46,-68 68,-68z"/>
  <g id="_2235598673200">
   <g>
    <path class="fil1" d="M647.93 736.28l73.09 -428.85 116.89 0 -73.14 428.85 -116.84 0zm539.16 -419.61c-23.16,-8.69 -59.45,-18.01 -104.76,-18.01 -115.51,0 -196.86,58.17 -197.56,141.53 -0.66,61.62 58.09,96 102.42,116.51 45.5,21.03 60.8,34.43 60.58,53.2 -0.29,28.75 -36.33,41.88 -69.93,41.88 -46.79,0 -71.64,-6.51 -110.04,-22.51l-15.06 -6.82 -16.4 96.01c27.3,11.97 77.78,22.34 130.21,22.88 122.87,0 202.64,-57.5 203.55,-146.53 0.43,-48.78 -30.7,-85.9 -98.15,-116.52 -40.85,-19.84 -65.88,-33.07 -65.61,-53.17 0,-17.82 21.18,-36.88 66.94,-36.88 38.23,-0.59 65.92,7.74 87.49,16.43l10.47 4.95 15.85 -92.95 0 0zm300.81 -9.25l-90.33 0c-27.98,0 -48.92,7.64 -61.21,35.57l-173.6 393 122.75 0c0,0 20.06,-52.83 24.6,-64.43 13.41,0 132.66,0.17 149.7,0.17 3.5,15.02 14.22,64.26 14.22,64.26l108.47 0 -94.6 -428.58 0 0.01zm-143.31 276.93c9.66,-24.71 46.57,-119.88 46.57,-119.88 -0.69,1.14 9.59,-24.84 15.49,-40.94l7.91 36.98c0,0 22.38,102.36 27.05,123.84l-97.02 0 0 0zm-795.89 -276.93l-114.43 292.46 -12.2 -59.43c-21.3,-68.51 -87.68,-142.74 -161.88,-179.9l104.64 375.04 123.68 -0.13 184.02 -428.04 -123.83 -0.01 0 0.01zm0 0l0 0 0 0z"/>
   </g>
   <g>
    <path class="fil2" d="M327.48 307.41l-188.48 0 -1.5 8.92c146.64,35.5 243.67,121.29 283.96,224.37l-40.99 -197.08c-7.07,-27.15 -27.6,-35.25 -52.98,-36.2l-0.01 -0.01zm0 0l0 0 0 0z"/>
   </g>
  </g>
 </g>
</svg>
