<?xml version="1.0" encoding="UTF-8"?>
<!DOCTYPE svg PUBLIC "-//W3C//DTD SVG 1.1//EN" "http://www.w3.org/Graphics/SVG/1.1/DTD/svg11.dtd">
<!-- Creator: CorelDRAW 2018 (64 Bit) -->
<svg xmlns="http://www.w3.org/2000/svg" xml:space="preserve" width="2.02cm" height="1.22cm" version="1.1" style="shape-rendering:geometricPrecision; text-rendering:geometricPrecision; image-rendering:optimizeQuality; fill-rule:evenodd; clip-rule:evenodd"
viewBox="0 0 202 122"
 xmlns:xlink="http://www.w3.org/1999/xlink">
 <defs>
  <style type="text/css">
   <![CDATA[
    .str0 {stroke:black;stroke-width:2;stroke-miterlimit:22.9256}
    .fil0 {fill:#FEFEFE}
    .fil1 {fill:#0E4595}
    .fil2 {fill:#F2AE14}
   ]]>
  </style>
 </defs>
 <g id="Camada_x0020_1">
  <metadata id="CorelCorpID_0Corel-Layer"/>
  <path class="fil0 str0" d="M9 1l184 0c4.418,0 8,3.583 8,8l0 104c0,4.417 -3.582,8 -8,8l-184 0c-4.417,0 -8,-3.583 -8,-8.001l0 -103.999c0,-4.417 3.583,-8 8,-8z"/>
  <g id="_2235598673200">
   <g>
    <path class="fil1" d="M76.051 86.445l8.598 -50.453 13.752 0 -8.604 50.453 -13.746 0zm63.43 -49.366c-2.724,-1.022 -6.994,-2.119 -12.325,-2.119 -13.589,0 -23.16,6.843 -23.242,16.651 -0.077,7.249 6.834,11.294 12.05,13.707 5.353,2.474 7.152,4.05 7.126,6.258 -0.034,3.383 -4.274,4.927 -8.227,4.927 -5.504,0 -8.428,-0.765 -12.945,-2.648l-1.772 -0.802 -1.93 11.295c3.212,1.409 9.151,2.628 15.319,2.692 14.456,0 23.84,-6.765 23.947,-17.239 0.051,-5.739 -3.612,-10.106 -11.547,-13.708 -4.806,-2.334 -7.75,-3.891 -7.719,-6.255 0,-2.097 2.492,-4.339 7.876,-4.339 4.497,-0.07 7.755,0.911 10.293,1.933l1.232 0.582 1.864 -10.935 0 0zm35.389 -1.088l-10.627 0c-3.291,0 -5.755,0.899 -7.201,4.184l-20.423 46.236 14.441 0c0,0 2.36,-6.216 2.894,-7.581 1.578,0 15.607,0.021 17.612,0.021 0.412,1.767 1.673,7.56 1.673,7.56l12.761 0 -11.13 -50.421 0 0.001zm-16.86 32.58c1.137,-2.907 5.479,-14.104 5.479,-14.104 -0.081,0.134 1.129,-2.922 1.823,-4.816l0.93 4.35c0,0 2.633,12.043 3.183,14.569l-11.415 0 0 0.001zm-93.633 -32.58l-13.463 34.407 -1.435 -6.992c-2.506,-8.06 -10.315,-16.793 -19.045,-21.165l12.311 44.123 14.55 -0.016 21.65 -50.357 -14.568 -0.001 0 0.001zm0 0l0 0 0 0z"/>
   </g>
   <g>
    <path class="fil2" d="M38.351 35.989l-22.175 0 -0.176 1.05c17.252,4.176 28.667,14.269 33.407,26.396l-4.822 -23.185c-0.832,-3.195 -3.247,-4.148 -6.233,-4.259l-0.001 -0.002zm0 0l0 0 0 0z"/>
   </g>
  </g>
 </g>
</svg>
